<svg xmlns:xlink="http://www.w3.org/1999/xlink" xmlns="http://www.w3.org/2000/svg" viewBox="0 0 198.43 56.69" width="198.43"  height="56.69" ><defs><style>.a{fill:#00a150;}.a,.b{fill-rule:evenodd;}.b{fill:#3e3e3e;}.c{fill:none;}</style></defs><path class="a" d="M40.44,12.07a8.54,8.54,0,0,1,9,4.15c1.12,2.08,1.13,4,2.21,5.78a13.76,13.76,0,0,0,9.34,6.28c1.47.24,3.05-.15,5.19.5a9,9,0,0,1,4.93,4.15c3.76,7.49-4.45,13.44-10.64,11.18A8.58,8.58,0,0,1,56,40.47c-.77-1.4-1-3.26-1.56-4.53a14,14,0,0,0-14-7.79,13.76,13.76,0,0,0-11,7.42c-1,2-.66,3.24-1.81,5.15a8.74,8.74,0,0,1-4.15,3.39c-7.8,3-14.15-5.23-10.51-11.56a8,8,0,0,1,4.67-3.77c.55-.18,3.53-.26,5.06-.5a12.43,12.43,0,0,0,8.69-5,13.73,13.73,0,0,0,1.94-3.77C34.55,16,35.64,12.75,40.44,12.07Z"/><path class="a" d="M41,32.17a5.22,5.22,0,0,1,5.71,2.77c1.9,4.21-2.51,8.48-6.88,6.78S36,33,41,32.17Z"/><path class="b" d="M139,13.2V27c1.74-1.42,3.45-3.94,5.32-5.65h5.32c.07.51-.6,1.15-1,1.63-1.39,1.54-3.2,3.4-4.67,4.9,2,2.8,4.19,5.33,6.1,8.17h-5.84c-1.75-2.46-3.35-5-5.19-7.41v7.41h-4.67V13.2Z"/><path class="b" d="M95.84,14.58c3.2,7.17,6.49,14.24,9.6,21.49H100c-.64-1.51-1.25-3.07-1.94-4.52H89.61a38.41,38.41,0,0,0-1.94,4.52H82.35c3.11-7.25,6.29-14.42,9.6-21.49ZM91,27.52h5.32A56.26,56.26,0,0,0,93.63,21C92.83,23.23,91.88,25.32,91,27.52Z"/><path class="b" d="M120.75,23.5c.91-.73,1.2-1.53,2.21-2a7.09,7.09,0,0,1,5.44,0c4,1.91,2.19,9.57,2.6,14.58h-4.67c-.56-2.41,1.16-10.13-1-10.93-5.13-1.89-3.75,6.62-3.89,10.93h-4.67c-.62-2.94,1.38-10.36-1.43-11.06-5-1.23-3.22,7.08-3.5,11.06h-4.67V21.37h4.54v1.76C112.85,20.68,119.76,20,120.75,23.5Z"/><path class="b" d="M158.63,21.12c5.12-.56,9,2.45,9.47,6.53a7.47,7.47,0,0,1-3.63,7.67c-5.86,3.34-14.91-.78-13.1-8.55C152.15,23.42,154.83,21.53,158.63,21.12ZM157.21,31.8c4.11,3.1,8.29-3.05,5.19-5.91a4.2,4.2,0,0,0-3.64-.75A3.83,3.83,0,0,0,157.21,31.8Z"/><path class="b" d="M169.4,21.37h5.06c1.13,3.35,2.6,6.36,3.76,9.67,1.4-3,2.27-6.52,3.51-9.67h4.8c-1.93,4.58-4,10.21-6.1,15.33-.68,1.67-1.29,3.72-2.21,4.9-1.57,2-5.4,2.15-8.56,1.25.28-1.19.41-2.53.65-3.77A3.82,3.82,0,0,0,176,36.32C173.84,31.31,171.48,26.48,169.4,21.37Z"/><path class="b" d="M101.29,40.22c-.37.7-.62.25-1.43.25-1,.06-1,1.94-.13,2.13.73.12,1.27-.63,1.56.13a1.22,1.22,0,0,1-1.17.63C96.88,43.46,98.51,38,101.29,40.22Z"/><path class="b" d="M125.81,39.84a1.78,1.78,0,1,1,.39,3.52A1.78,1.78,0,0,1,125.81,39.84Zm1,2.64a1.47,1.47,0,0,0,0-1.89C124.51,39.5,124.51,43.57,126.85,42.48Z"/><path class="b" d="M142.42,39.84a1.78,1.78,0,1,1,.38,3.52C141,43.4,139.79,40.28,142.42,39.84Zm-.78,1.88a1.14,1.14,0,1,0,2.07-.88A1.18,1.18,0,0,0,141.64,41.72Z"/><path class="b" d="M153.18,40.09c-.39,1.24-2.38-.41-2.46,1.38,0,.68,1.07,1.88,1.82.63.14-.56-.95.08-.65-.63,0-.53,1-.12,1.42-.25V43C149.48,45.25,148.62,38.07,153.18,40.09Z"/><path class="b" d="M82.22,39.84c.88.15,2.4-.32,2.85.25.19.64-.65.29-1,.38v2.76h-.77V40.59c-.1-.28-.73-.05-1-.12Z"/><path class="b" d="M90.39,39.84h2.34v.75H91.17v.5c.21.43,1.55-.24,1.56.38s-1.07.23-1.56.38v.63c.25.43,1.64-.25,1.68.37-.11.81-1.71.18-2.46.38Z"/><path class="b" d="M106.74,39.84h.78v1.25h1.42c.3-.17,0-.87.13-1.25h.78v3.39h-.78V41.85c-.31-.24-1-.08-1.55-.13v1.51h-.78Z"/><path class="b" d="M115.43,39.84h1.17c.29.89.94,1.43,1.29,2.26.31-.51,0-1.55.14-2.26h.77v3.39h-1c-.47-.75-1-1.47-1.42-2.26-.3.5,0,1.55-.13,2.26h-.78Z"/><path class="b" d="M133.46,39.84h.78v2.64c.17.42,1.46-.24,1.43.37,0,.8-1.54.19-2.21.38Z"/><path class="b" d="M158.5,39.84h.91c.18.45.57.7.65,1.25a2.73,2.73,0,0,0,.78-1.25h1c-.57,1-1.59,1.56-1.3,3.39h-.78C160.11,41.39,158.92,41,158.5,39.84Z"/><rect class="c" x="11.64" y="10.88" width="175.15" height="34.93"/></svg>