<svg xmlns:xlink="http://www.w3.org/1999/xlink" _ngcontent-serverApp-c79="" xmlns="http://www.w3.org/2000/svg" width="540.51" viewBox="0 0 540.51 168.052" height="168.052" ><path _ngcontent-serverApp-c79="" id="BIOUGNACH" d="M83.82,52c-2.47-1.91-5.82-2.83-10-2.83A19.84,19.84,0,0,0,58.71,56l5.91-39.63H48.3v.05H17.83L15.57,32.49H46L28.83,149.43h16.3l.83-5.9c3,4.58,7.39,6.84,13.17,6.84a20.07,20.07,0,0,0,10.8-2.84,21.35,21.35,0,0,0,6.75-6.26,79.331,79.331,0,0,0,3.48-12.14l8.52-58.71c.81-5.7.84-9.71.06-12A13.73,13.73,0,0,0,83.82,52ZM72.11,72.32,65,121l-.93,6.22a7.59,7.59,0,0,1-2.73,5,8.54,8.54,0,0,1-6.94,1.89c-2.44-.39-4.52-2-6.32-4.94l8.53-58.71c2.63-2.91,5.23-4.54,7.79-4.94,2.75-.36,4.88.24,6.34,1.89A5.67,5.67,0,0,1,72.11,72.32Zm32.28-22.53L89.87,149.43h16.35l14.46-99.64Zm51.82-.22A27.15,27.15,0,0,0,138,56.64a27.5,27.5,0,0,0-9.56,17.14l-7.82,52.37a20.2,20.2,0,0,0,4.81,17.12,20.75,20.75,0,0,0,16.3,7.1,26.81,26.81,0,0,0,18.12-7.1,27.74,27.74,0,0,0,9.51-17.12L177,73.78c1-6.67-.58-12.4-4.66-17.14s-9.49-7.07-16.13-7.07Zm4.65,23.83-7.71,53.08A9.27,9.27,0,0,1,150,132.1a9.15,9.15,0,0,1-6,2.36,6.88,6.88,0,0,1-7-8l7.74-53.08a9.08,9.08,0,0,1,3.17-5.56,9.22,9.22,0,0,1,6.19-2.36,6.74,6.74,0,0,1,6.74,7.92Zm62.59-23.29-11.48,79c-2.73,2.94-5.25,4.55-7.78,4.94-2.76.39-4.9-.26-6.36-1.89a5.8,5.8,0,0,1-1.38-5l11.27-77.1H191.41l-11.5,79q-1.26,8.56-.07,12a13.83,13.83,0,0,0,4.92,6.36q3.74,2.85,9.94,2.84a19.75,19.75,0,0,0,15.16-6.84l-.89,5.9h16.32L239.74,50Zm60.51,0L283.11,56q-4.32-6.84-13.23-6.83A20.34,20.34,0,0,0,259,52a21,21,0,0,0-6.73,6.25c-2,5.45-3.07,9.47-3.31,12.15l-8.55,58.71c-.87,5.71-.87,9.72-.12,12a12.84,12.84,0,0,0,4.8,6.36c2.45,1.9,5.8,2.84,9.93,2.84a20.52,20.52,0,0,0,15.36-6.84l-2.77,18.83a8.84,8.84,0,0,1-3.18,5.68,9.23,9.23,0,0,1-6.08,2.28,6.41,6.41,0,0,1-5.31-2.38,6.78,6.78,0,0,1-1.44-5.58h-16c-.92,6.46.66,11.69,4.66,15.75s9.42,6,16.27,6a29.1,29.1,0,0,0,18.08-6A23.57,23.57,0,0,0,284,162.36L300.26,50.11Zm-11.51,79c-2.84,2.94-5.52,4.55-8.12,4.94-2.86.39-5-.26-6.53-1.89a6,6,0,0,1-1.18-5l7.09-48.65.87-6.24a8.34,8.34,0,0,1,3.19-5.23,8.47,8.47,0,0,1,6.74-1.61c2.48.4,4.65,2,6.51,4.94Zm86.16-70.75A13.45,13.45,0,0,0,353.7,52c-2.51-1.91-5.8-2.83-9.94-2.83A20.2,20.2,0,0,0,328.61,56l.84-5.91H313.14l-14.48,99.32H315l11.52-79c2.63-2.91,5.19-4.54,7.76-4.94,2.75-.36,4.9.24,6.33,1.89A5.57,5.57,0,0,1,342,72.32l-11.26,77.11h16.35l11.47-79c.84-5.71.84-9.72.05-12.05Zm54.62-1.82c-3.71-4.67-9-7-15.62-7a25.26,25.26,0,0,0-17.56,7,28.18,28.18,0,0,0-9.14,17.24l-1.46,10.05H385.4l1.51-10.44c.79-5.29,3.56-8,8.34-8s6.62,2.64,5.89,7.9l-1.9,13c-1.85,2.36-3.27,3.71-4.2,4.13l-16.75,7c-5.27,2.27-8.73,4.09-10.31,5.51-2.52,2.37-4.17,6.82-5.15,13.25L361,129.13c-.27,1.88-.48,3.74-.61,5.52a16.181,16.181,0,0,0,.39,6.62,13.42,13.42,0,0,0,4.95,6.26q3.72,2.85,10,2.84a19.89,19.89,0,0,0,15.21-6.84l-.85,5.9h16.29l11-75.65c.98-6.84-.38-12.55-4.15-17.22Zm-20.08,71.62a4.19,4.19,0,0,1-1.87,2.64,12.66,12.66,0,0,1-6,3.25c-2.76.39-4.86-.26-6.38-1.89a5.87,5.87,0,0,1-1.29-5l1-7.14a46.284,46.284,0,0,1,1-5.7,9,9,0,0,1,5.11-4.91l8.33-3.32a20.865,20.865,0,0,1,2.22-1.34c1-.92,1.54-1.42,1.54-1.58Zm64.72-37.43h16.27l2.49-17c1-6.72-.58-12.4-4.64-17.11s-9.43-7.07-16.22-7.07a27.17,27.17,0,0,0-18.25,7.07,27.34,27.34,0,0,0-9.62,17.17l-7.62,52.34a20.24,20.24,0,0,0,4.77,17.12,20.85,20.85,0,0,0,16.36,7.1,26.74,26.74,0,0,0,18.08-7.1A27.74,27.74,0,0,0,469,126.09l.82-5.68H453.53l-.89,6.06a9.38,9.38,0,0,1-3.17,5.63,9.06,9.06,0,0,1-6,2.36,6.73,6.73,0,0,1-5.4-2.36,6.92,6.92,0,0,1-1.59-5.62l7.78-53.08a8.94,8.94,0,0,1,3.17-5.56,9.2,9.2,0,0,1,6.13-2.36,6.77,6.77,0,0,1,6.8,7.9ZM125.41,16H109.05l-3,22.87h16.31ZM525.85,133.37,535,70.42c.83-5.7.9-9.71.17-12A13,13,0,0,0,530.36,52c-2.51-1.91-5.85-2.83-10-2.83A20.36,20.36,0,0,0,505.08,56l4.78-33H493.57L475.13,149.43h16.32l11.52-79c2.77-2.91,5.44-4.54,7.93-4.94,2.78-.36,4.93.24,6.41,1.89a5.88,5.88,0,0,1,1.1,4.95l-11.2,77.11h46.58l2.29-16.06ZM294.94,176.63h11.72l.35-2.48h-8.93l.76-5.51h7.6l.38-2.47H299.2l.79-5.34h8.9l.35-2.48H297.52Zm35.57-18.28h-2.85l-2.54,18.28h11.59l.38-2.48h-8.86Zm24,18.28H366.2l.37-2.48h-8.91l.76-5.51H366l.37-2.47h-7.65l.8-5.34h8.91l.39-2.48h-11.7ZM390,161.78a4.58,4.58,0,0,1,2.89-1.13,3.13,3.13,0,0,1,3.28,3.15H399c-.13-3.61-2.38-5.61-5.73-5.61a7.68,7.68,0,0,0-5.14,2c-2,1.77-2.29,3.81-2.79,7.32s-.81,5.56.75,7.36a5.74,5.74,0,0,0,4.52,2,7.5,7.5,0,0,0,7.32-5.65h-2.77a4.39,4.39,0,0,1-4.18,3.12,3.2,3.2,0,0,1-2.55-1.07c-.77-1-.82-2.05-.3-5.74S389,162.75,390,161.78Zm25.64-.95h5l-2.23,15.8h2.78l2.23-15.8h5.07l.35-2.48H416Zm43,2.85c.43-3.1-1.4-5.33-4.9-5.33h-7.12l-2.57,18.28h2.78l1.07-7.7h3.47l2.8,7.7h3.25l-3.11-8.06a5.78,5.78,0,0,0,4.34-4.89Zm-6.27,2.9h-4.12l.8-5.75h4.11c1.87,0,3,1.07,2.71,2.91a3.3,3.3,0,0,1-3.49,2.84Zm31.71-8.39a7.38,7.38,0,0,0-5.08,2c-2.08,1.77-2.33,3.81-2.83,7.32s-.84,5.56.72,7.36a5.68,5.68,0,0,0,4.55,2,7.57,7.57,0,0,0,5.09-2c2.08-1.8,2.32-3.83,2.82-7.36s.85-5.55-.71-7.32a5.65,5.65,0,0,0-4.55-2Zm2.45,9.29c-.46,3.69-.83,4.68-1.83,5.66a4.28,4.28,0,0,1-2.88,1.15,3.15,3.15,0,0,1-2.58-1.15c-.79-1-.8-2-.28-5.66s.85-4.7,1.87-5.68a4.37,4.37,0,0,1,2.9-1.15,3.08,3.08,0,0,1,2.54,1.15c.79.98.84,2,.27,5.68Z" transform="translate(-15.57 -16)" fill="#131313"></path></svg>