<svg xmlns="http://www.w3.org/2000/svg" xmlns:xlink="http://www.w3.org/1999/xlink" id="Layer_1" version="1.1" viewBox="0 0 1920 944" width="1920"  height="944" ><!-- Generator: Adobe Illustrator 29.0.1, SVG Export Plug-In . SVG Version: 2.1.0 Build 192) --><defs><style> .st0 { fill: url(#Dégradé_sans_nom_281); } .st1 { fill: url(#Dégradé_sans_nom_282); } .st2 { fill: url(#Dégradé_sans_nom_283); } .st3 { fill: url(#Dégradé_sans_nom_112); } .st4, .st5 { fill: #fff; } .st5 { stroke: #906625; stroke-miterlimit: 10; stroke-width: .7px; } .st6 { fill: url(#Dégradé_sans_nom_28); } .st7 { fill: #906625; } </style><linearGradient id="Dégradé_sans_nom_28" data-name="Dégradé sans nom 28" x1="397.55" y1="919.72" x2="397.55" y2="181.78" gradientUnits="userSpaceOnUse"><stop offset="0" stop-color="#b69b5d"/><stop offset=".48" stop-color="#eedb90"/><stop offset="1" stop-color="#b69b5d"/></linearGradient><linearGradient id="Dégradé_sans_nom_281" data-name="Dégradé sans nom 28" x1="714.22" y1="388.84" x2="714.22" y2="95.63" gradientTransform="translate(217.88 -135.75) rotate(14.26) scale(.88 .92)" xlink:href="#Dégradé_sans_nom_28"/><linearGradient id="Dégradé_sans_nom_282" data-name="Dégradé sans nom 28" x1="1002.79" y1="197.84" x2="1002.79" y2="-12.94" gradientTransform="translate(217.88 -135.75) rotate(14.26) scale(.88 .92)" xlink:href="#Dégradé_sans_nom_28"/><linearGradient id="Dégradé_sans_nom_283" data-name="Dégradé sans nom 28" x1="1163.32" y1="14.04" x2="1163.32" y2="-132.07" gradientTransform="translate(283.04 -215.41) rotate(20.56) scale(.88 .92)" xlink:href="#Dégradé_sans_nom_28"/><radialGradient id="Dégradé_sans_nom_112" data-name="Dégradé sans nom 112" cx="1270.87" cy="838.28" fx="1270.87" fy="838.28" r="446.78" gradientUnits="userSpaceOnUse"><stop offset="0" stop-color="#b69b5d"/><stop offset="1" stop-color="#b69b5d"/></radialGradient></defs><g><path class="st7" d="M858.46,656.46c19.33-1.38,24.3-6.08,24.3-22.37v-118.74c0-17.12-3.87-21.26-24.3-22.64v-10.77c11.32.83,21.54.83,30.1.83,11.6,0,27.34-.55,47.49-.55,58.27,0,86.15,13.81,86.15,49.43s-26.51,52.19-82.29,52.19c-4.14,0-8.84,0-13.53-.27v49.15c0,17.95,5.52,23.75,26.23,23.75h1.66v11.32c-16.57-.55-37.55-.83-63.51-.83-12.7,0-23.47,0-32.31.83v-11.32ZM933.85,570.31c29.27,0,41.14-11.32,41.14-39.49,0-23.19-11.87-35.35-33.96-35.35-11.05,0-14.64,1.38-14.64,7.46v67.1c2.49.28,4.97.28,7.46.28Z"/><path class="st7" d="M1148.96,670.82c-19.88,0-32.03-12.15-32.03-31.2,0-21.82,14.36-31.48,45.84-43.35l19.61-7.18c4.69-1.66,6.9-4.14,6.9-9.39v-9.39c0-11.32-5.52-17.12-15.46-17.12-7.73,0-13.81,4.14-17.12,11.05-4.42,9.66-6.63,20.16-19.61,20.16-8.84,0-15.46-6.35-15.46-15.46,0-15.46,18.5-26.51,51.64-26.51,34.79,0,52.47,11.87,52.47,35.9v65.17c0,5.53,1.38,7.73,4.97,7.73,1.93,0,4.97-1.38,9.11-4.14l5.8,7.46c-6.9,9.94-20.44,16.29-32.03,16.29-13.81,0-21.54-5.25-25.4-17.67-13.25,11.87-25.4,17.67-39.21,17.67ZM1187.9,599.3c-22.09,6.9-32.31,16.29-32.31,32.03,0,10.49,5.52,16.84,13.25,16.84,9.39,0,19.05-7.18,19.05-18.51v-30.37Z"/><path class="st7" d="M1344.46,657.29c13.53-1.38,17.4-3.86,17.4-14.36v-56.33c0-17.95-2.76-24.85-17.12-25.13v-9.66c19.61-2.21,35.35-5.25,46.67-9.66h4.69l2.21,24.02c10.22-15.18,22.64-22.64,34.79-22.64,14.36,0,22.64,7.18,22.64,19.61,0,10.22-6.63,16.84-17.12,16.84-12.7,0-15.19-14.36-21.81-14.36-7.18,0-16.02,12.71-16.02,26.23v51.92c0,11.32,4.97,13.53,19.33,13.53v10.22c-12.7-.28-25.96-.55-39.21-.55-8.28,0-20.16,0-36.45.55v-10.22Z"/><path class="st7" d="M1586.63,670.82c-19.88,0-32.03-12.15-32.03-31.2,0-21.82,14.36-31.48,45.84-43.35l19.61-7.18c4.69-1.66,6.9-4.14,6.9-9.39v-9.39c0-11.32-5.52-17.12-15.46-17.12-7.73,0-13.81,4.14-17.12,11.05-4.42,9.66-6.63,20.16-19.61,20.16-8.84,0-15.46-6.35-15.46-15.46,0-15.46,18.5-26.51,51.64-26.51,34.79,0,52.47,11.87,52.47,35.9v65.17c0,5.53,1.38,7.73,4.97,7.73,1.93,0,4.97-1.38,9.11-4.14l5.8,7.46c-6.9,9.94-20.44,16.29-32.03,16.29-13.81,0-21.54-5.25-25.4-17.67-13.25,11.87-25.4,17.67-39.21,17.67ZM1625.57,599.3c-22.09,6.9-32.31,16.29-32.31,32.03,0,10.49,5.52,16.84,13.25,16.84,9.39,0,19.05-7.18,19.05-18.51v-30.37Z"/></g><path class="st6" d="M774.56,480.98c-.02-3.54-.66-6.98-1.57-10.39-.82-6.22-2.11-12.33-4.16-18.26h0c-1.15-5.24-2.96-10.25-5.23-15.09h0c-2.64-6.91-5.91-13.48-10.37-19.42-4.61-7.27-10.32-13.54-17.27-18.64-4.44-3.64-9.24-6.71-14.62-8.8-2.79-.83-5.31-2.32-8.08-3.25-19.83-6.7-39.04-3.03-58.12,3.25-.34.01-.71-.04-1.03.05-9.47,2.71-18.88,5.59-28.16,8.89h0s0,0,0,0c-6.85,2.4-13.75,4.69-20.56,7.22-9.89,3.67-19.81,7.28-29.48,11.51h0c-5.14,2.06-10.31,4.05-15.41,6.2-10.03,4.24-20.16,8.26-29.95,13.07-11.51,4.56-22.72,9.8-33.89,15.11h0c-7.35,3.29-14.7,6.57-22.48,10.05,1.76-3.53,3.26-6.54,4.77-9.55,4.13-7.49,7.97-15.13,11.43-22.95,2.5-4.75,4.93-9.55,6.92-14.54h0c2.89-5.43,5.41-11.03,7.74-16.72h0c1.62-2.84,2.93-5.82,4.06-8.88h0c1.38-3.14,3.16-6.09,4.2-9.38h0c2.28-4.6,4.31-9.31,6.2-14.08h0c1.58-3.23,3.05-6.5,4.22-9.9h0c1.94-3.9,3.53-7.94,5.1-12h0c1.75-4.34,3.5-8.69,5.26-13.03,1.78-4.1,3.5-8.22,4.81-12.5,1.62-3.55,2.98-7.2,4.09-10.94h0c4.06-10.53,7.52-21.24,9.97-32.27.81-3.63,1.8-7.34.98-11.06-2.11-9.51-5.14-18.73-9.56-27.45-12.19-24-31.65-35.9-58.66-34.93-11.44.41-22.49,3.04-33.28,6.8-21.15,7.37-40.42,18.33-58.66,31.17-1.45,1.02-2.21.95-3.41-.31-7.92-8.3-16.24-16.2-25.1-23.5-14.01-11.54-28.93-21.63-45.97-28.2-14.76-5.69-29.92-8.27-45.67-5.09-16.69,3.37-30.17,12.16-40.89,25.14-14.66,17.77-23.13,38.11-23.17,61.32-.02,13.19,3.78,25.85,7.73,38.37,1.01,3.7,2.01,7.41,3.56,10.94,1.04,4.3,2.7,8.39,4.28,12.51h0c1.45,4.44,3.02,8.84,4.93,13.11,1.31,4.1,2.93,8.07,4.71,11.99,1.32,3.28,2.64,6.56,3.96,9.84h0c2.06,4.86,4.13,9.72,6.19,14.58,1.02,2.87,2.23,5.67,3.64,8.38,1.16,3.22,2.57,6.33,4.15,9.37h0c2.31,5.69,4.83,11.28,7.63,16.74,2.19,5.51,4.77,10.84,7.48,16.1h0c3.18,7.26,6.55,14.43,10.29,21.41h0c2.67,5.8,5.28,11.63,8.47,17.18h0c-.1,1.42-1.14.19-1.61.57h0c-3.08-2.03-6.62-3.12-9.85-4.88-5.73-3.11-11.59-6.02-17.78-8.16h0c-6.33-3.31-12.8-6.32-19.34-9.18-8.14-3.57-16.29-7.09-24.44-10.63-10.29-4.67-20.69-9.07-31.26-13.05-2.15-.9-4.29-1.85-6.46-2.7-11.61-4.54-23.19-9.15-35.26-12.35-3.86-1.06-7.7-2.25-11.6-3.15-17.14-3.95-34.41-6.37-52.03-3.73-7.47,1.12-14.66,3.14-21.37,6.68h0c-1.29.68-2.63,1.29-3.87,2.07-6.01,3.78-11.54,8.12-15.52,14.14h0c-3.07,3.6-5.46,7.62-7.16,12.04-3.01,6.07-4.99,12.46-5.78,19.2-.07.18-.1.34-.12.49-1.1,4.29-1.49,8.67-1.45,13.09h0c-.97,5.62-.24,11.19.54,16.75h0c.54,7.6,2.55,14.84,5.31,21.91h0c2.53,7.62,6.33,14.62,10.6,21.38,7.76,12.31,17.03,23.42,27.39,33.61,1.64,1.61,1.53,2.54-.19,3.79-1.68,1.22-3.27,2.57-4.49,4.29-5.89,5.57-10.92,11.84-15.13,18.76h0c-4.66,6.67-8.31,13.88-11.4,21.38-2.98,6.4-5.39,13-7.25,19.81h0c-2.6,8.35-4.56,16.86-5.77,25.52-1.42,7.16-2.07,14.31.44,21.39,1.64,7.34,4.66,14.08,8.7,20.39,2.94,5.59,6.81,10.5,11.08,15.11h0c3.44,4.2,7.39,7.89,11.49,11.43,8.36,8.39,18.68,13.02,30.07,15.44,13.58,2.89,27.32,3.24,41.14,2.46,13.61-.77,27.06-2.64,40.43-5.19,16.42-3.14,32.52-7.5,48.37-12.82,9.79-3.23,19.54-6.57,28.73-11.31h0c1.02.06,1.81-.53,2.67-.92,8.25-3.82,16.19-8.16,23.33-13.85h0c.76.17,1.16-1.6,2.11-.4-3.61,5.05-7.21,10.09-10.82,15.14-3.05,3.62-6.1,7.23-9.15,10.85h0c-4.32,4.32-8.64,8.63-12.95,12.95h0c-5.05,4.21-10.1,8.42-15.15,12.64h0c-7.34,5.23-14.82,10.25-22.42,15.1h0c-2.57,1.41-5.16,2.8-7.72,4.24-10.11,5.69-20.72,10.33-31.32,14.99h0c-9.97,3.8-20.08,7.19-30.19,10.55h0c-3.99,1.05-7.97,2.17-11.98,3.14-8.04,1.94-16.09,3.79-24.14,5.67,0,0,0,0,0,0-.52.03-1.05,0-1.55.1-11.73,2.22-23.54,3.81-35.43,4.97-2.92.28-5.93-.06-9.31.98,3.8,1.76,7.15,3.32,10.51,4.88h0c.45.25.88.54,1.34.76,12.73,5.94,25.41,12.01,38.21,17.79,20.46,9.25,40.99,18.36,62.32,25.53,2.68.9,4.73.57,7.04-.83,8.27-5.04,15.7-11.17,22.89-17.59,9.2-8.21,18.21-16.61,26.65-25.61,1.54-1.49,3.21-2.88,4.6-4.51,1.65-1.94,3.96-3.33,4.96-5.83,2.76-2.74,5.53-5.47,8.29-8.21,3.26-3.22,6.57-6.39,9.27-10.12h0c1.06-.33,1.59-1.29,2.26-2.04,5.17-5.76,10.29-11.55,15.43-17.33,5.06-5.02,9.67-10.43,14.2-15.92,3.69-3.8,7.17-7.8,10.43-11.97h0c3.18-2.8,5.26-6.57,8.25-9.54.19.19.39.38.58.57h0s0,0,0,0c-2.66,5.02-5.33,10.03-7.99,15.05h0c-3.2,5.42-6.1,11-8.73,16.72-3,5.19-5.55,10.61-7.97,16.08h0c-2.89,5.62-5.51,11.36-7.86,17.22h0c-1.51,3.06-2.8,6.21-3.89,9.45h0c-1.47,3.2-2.67,6.5-3.65,9.88h0c-.2.48-.43.95-.6,1.44-5.16,14.62-5.36,29.65-3.07,44.73,3.14,20.63,13.08,37.17,31.07,48.28,11.12,6.87,22.93,11.31,36.46,9.74,16.19-1.87,31.27-6.93,45.48-14.75,19.3-10.62,35.81-24.72,50.75-40.77,2.61-2.81,2.59-2.74,5.53-.36,12.92,10.5,27.1,19.08,41.76,26.86,18.68,9.91,37.82,18.73,59.09,21.46,18.94,2.43,35.85-2.26,49.88-15.6,11.52-10.95,18.37-24.69,22.89-39.68,1.67-5.54,3.64-11.08,3.14-17.03-.68-8.16-2.41-16.1-5.26-23.79-1.12-3.56-2.18-7.15-4.07-10.41-.74-3.16-2.22-6.01-3.68-8.87-2.41-6.08-5.32-11.93-8.37-17.72-2.55-5.67-5.39-11.2-8.32-16.69-2.7-5.41-5.41-10.81-8.11-16.22h0c-3.15-6.86-6.4-13.68-10.07-20.28h0c-1.14-3.68-3.04-7.01-4.76-10.43h0c-2.28-5.04-4.56-10.07-6.84-15.11h0c-2.94-6.78-5.87-13.56-8.81-20.35h0c-1.75-4.49-3.49-8.99-5.24-13.48.22-.22.44-.43.66-.65h0s0,0,0,0c3.11,2.64,6.21,5.27,9.32,7.91,7.59,6.61,15.67,12.58,23.98,18.26,6.71,4.74,13.65,9.1,20.84,13.06,6.72,4.07,13.77,7.51,20.92,10.76,8.71,4.29,17.78,7.71,27.02,10.65,3.34,1.39,6.85,2.22,10.32,3.18,18.65,5.15,37.59,7.88,56.99,7.67,12.07-.13,22.61-4.19,32.3-11.02h0c.69.12,1.11-.39,1.6-.72,3.94-2.67,7.22-6.07,10.47-9.5h0c3.05-3.09,5.47-6.62,7.24-10.58h0c2.51-4.16,3.88-8.73,4.72-13.48h0c1.8-6.17,1.72-12.49,1.45-18.82h0c-.07-5.3-.92-10.49-2.1-15.64h0c-1.68-8.62-4.31-16.95-7.76-25.03h0c-2.51-6.88-5.6-13.49-9.2-19.86h0c-3.46-7.46-7.69-14.47-12.2-21.32-1.94-3.57-4.27-6.9-6.76-10.08-1.43-1.84-.64-2.7.69-3.77,1.87-1.49,3.71-3,5.57-4.5h0s0,0,0,0c.23-.11.5-.17.69-.33,13.29-11.52,25.41-24.14,35.65-38.46,5.5-7.69,10.52-15.71,13.71-24.7,2.11-5.04,3.78-10.21,4.47-15.64.53-4.18,1.42-8.37.3-12.6Z"/><path class="st0" d="M909.21,243.69c.31-1.26.4-2.53.4-3.82.28-2.27.39-4.55.23-6.83h0c.08-1.96-.08-3.89-.42-5.8h0c-.27-2.68-.8-5.29-1.78-7.78-.91-2.98-2.29-5.69-4.2-8.1-1.18-1.68-2.54-3.18-4.18-4.38-.88-.54-1.6-1.28-2.46-1.85-6.14-4.09-13.01-4.45-20.07-3.88-.12-.02-.24-.07-.35-.07-3.47.14-6.93.35-10.38.71h0s0,0,0,0c-2.55.26-5.1.47-7.65.78-3.7.44-7.4.87-11.07,1.53h0c-1.93.29-3.87.54-5.8.87-3.8.63-7.61,1.18-11.37,2.04-4.33.62-8.61,1.51-12.89,2.42h0c-2.8.53-5.6,1.06-8.55,1.62.92-1.1,1.7-2.04,2.48-2.97,2.08-2.3,4.07-4.67,5.96-7.14,1.28-1.47,2.54-2.96,3.66-4.55h0c1.47-1.67,2.83-3.44,4.14-5.26h0c.81-.87,1.52-1.81,2.18-2.8h0c.75-.99,1.63-1.89,2.27-2.96h0c1.19-1.43,2.3-2.93,3.38-4.45h0c.83-1.01,1.62-2.04,2.33-3.14h0c1.01-1.21,1.92-2.51,2.81-3.81h0c.99-1.39,1.97-2.78,2.96-4.16.98-1.3,1.93-2.61,2.76-4.01.87-1.12,1.66-2.29,2.38-3.52h0c2.33-3.38,4.47-6.88,6.3-10.57.6-1.22,1.27-2.44,1.33-3.84.14-3.55-.06-7.08-.78-10.55-1.98-9.56-7.54-15.46-16.82-17.46-3.93-.84-7.93-.87-11.94-.47-7.86.78-15.4,3-22.77,5.97-.59.24-.84.15-1.13-.4-1.95-3.63-4.07-7.14-6.42-10.5-3.73-5.3-7.9-10.17-13.1-13.97-4.51-3.29-9.44-5.52-15.08-5.75-5.98-.25-11.36,1.7-16.18,5.37-6.59,5.03-11.31,11.5-13.41,19.73-1.2,4.67-1.04,9.49-.82,14.27,0,1.4.02,2.8.23,4.18-.03,1.61.16,3.21.33,4.8h0c.09,1.7.23,3.39.5,5.07.08,1.57.27,3.11.52,4.66.15,1.28.31,2.55.46,3.83h0c.26,1.9.53,3.8.79,5.7.09,1.11.25,2.2.48,3.28.11,1.24.3,2.47.57,3.68h0c.27,2.22.63,4.42,1.09,6.59.25,2.14.65,4.25,1.09,6.35h0c.43,2.85.93,5.68,1.57,8.48h0c.39,2.29.75,4.58,1.33,6.82h0c-.16.5-.4-.03-.6.06h0c-.87-.98-1.97-1.68-2.91-2.58-1.67-1.6-3.4-3.14-5.32-4.43h0c-1.86-1.72-3.79-3.35-5.75-4.93-2.45-1.97-4.91-3.92-7.36-5.88-3.08-2.54-6.22-5-9.46-7.33-.65-.51-1.29-1.03-1.95-1.51-3.54-2.61-7.07-5.25-10.89-7.43-1.22-.71-2.42-1.46-3.66-2.12-5.48-2.88-11.14-5.23-17.37-5.82-2.64-.25-5.27-.16-7.88.52h0c-.5.13-1.01.23-1.5.4-2.39.82-4.66,1.88-6.56,3.67h0c-1.37,1.01-2.54,2.23-3.52,3.65-1.57,1.89-2.82,3.98-3.69,6.3-.04.06-.07.11-.09.16-.76,1.43-1.29,2.94-1.67,4.51h0c-.84,1.91-1.09,3.94-1.32,5.98h0c-.5,2.74-.47,5.48-.17,8.22h0c.18,2.92.84,5.73,1.68,8.49,1.53,5.04,3.68,9.77,6.29,14.28.41.71.29,1.03-.41,1.32-.68.29-1.35.63-1.91,1.13-2.51,1.46-4.78,3.25-6.84,5.34h0c-2.19,1.96-4.08,4.2-5.81,6.59-1.59,2.01-3.01,4.14-4.25,6.39h0c-1.64,2.74-3.07,5.58-4.26,8.55-1.13,2.42-2,4.89-1.78,7.62-.1,2.74.32,5.39,1.12,7.98.5,2.24,1.37,4.31,2.41,6.31h0c.79,1.79,1.8,3.44,2.88,5.05,2.09,3.7,5.18,6.23,8.84,8.07,4.36,2.2,9,3.51,13.78,4.43,4.7.9,9.45,1.41,14.23,1.66,5.87.31,11.74.16,17.61-.36,3.62-.3,7.24-.64,10.8-1.52h0c.34.11.66-.03.99-.1,3.15-.64,6.25-1.49,9.19-2.89h0c.24.13.54-.47.75.04-1.68,1.48-3.36,2.95-5.05,4.43-1.36,1.02-2.73,2.03-4.09,3.05h0c-1.86,1.16-3.72,2.31-5.57,3.47h0c-2.1,1.06-4.2,2.11-6.29,3.17h0c-2.97,1.22-5.97,2.35-8.99,3.41h0c-1,.28-2.01.55-3.01.84-3.95,1.14-7.98,1.87-12.01,2.6h0c-3.73.48-7.48.81-11.23,1.13h0c-1.45.03-2.91.08-4.36.08-2.91,0-5.82-.05-8.73-.08h0c-.18-.03-.36-.09-.54-.1-4.19-.23-8.36-.69-12.5-1.3-1.02-.15-2.01-.54-3.26-.46,1.13.95,2.14,1.8,3.14,2.64h0c.13.13.25.27.39.39,3.8,3.21,7.56,6.45,11.4,9.61,6.13,5.05,12.29,10.05,18.91,14.44.83.55,1.56.61,2.47.31,3.27-1.07,6.35-2.6,9.37-4.25,3.87-2.11,7.69-4.31,11.38-6.77.66-.4,1.35-.74,1.97-1.2.74-.54,1.65-.84,2.21-1.64,1.19-.73,2.37-1.46,3.56-2.19,1.4-.86,2.81-1.7,4.07-2.79h0c.39-.02.66-.32.95-.53,2.28-1.59,4.54-3.2,6.81-4.81,2.17-1.34,4.23-2.86,6.27-4.41,1.6-1.03,3.14-2.14,4.63-3.34h0c1.34-.72,2.38-1.87,3.67-2.67.05.08.1.17.15.25h0s0,0,0,0c-1.36,1.55-2.72,3.09-4.07,4.64h0c-1.58,1.65-3.07,3.37-4.48,5.17-1.49,1.58-2.84,3.28-4.16,5.01h0c-1.49,1.74-2.9,3.55-4.23,5.42h0c-.79.95-1.51,1.96-2.18,3.01h0c-.79,1.01-1.49,2.07-2.13,3.19h0c-.11.15-.23.3-.33.46-3.07,4.74-4.5,10.05-5.07,15.58-.79,7.58,1.1,14.3,6.22,19.8,3.17,3.4,6.78,5.99,11.53,6.61,5.68.74,11.26.25,16.8-1.29,7.52-2.09,14.41-5.66,20.94-10.06,1.14-.77,1.13-.75,1.91.35,3.45,4.84,7.5,9.11,11.79,13.13,5.46,5.13,11.18,9.91,18.17,12.72,6.23,2.5,12.4,2.3,18.38-1.21,4.91-2.88,8.47-7.16,11.36-12.08,1.07-1.82,2.24-3.61,2.6-5.76.5-2.95.63-5.92.35-8.89-.06-1.36-.1-2.72-.45-4.04.03-1.18-.21-2.32-.45-3.46-.27-2.36-.74-4.69-1.25-7-.36-2.23-.82-4.44-1.33-6.63-.43-2.15-.87-4.3-1.3-6.45h0c-.45-2.71-.94-5.4-1.6-8.06h0c-.06-1.4-.4-2.75-.68-4.11h0c-.32-1.98-.64-3.96-.97-5.95h0c-.39-2.66-.78-5.32-1.16-7.97h0c-.19-1.74-.38-3.49-.57-5.23.09-.06.19-.11.28-.17h0s0,0,0,0c.82,1.2,1.64,2.41,2.46,3.61,1.99,3,4.2,5.81,6.52,8.54,1.86,2.26,3.82,4.41,5.91,6.43,1.92,2.02,4.01,3.85,6.15,5.62,2.58,2.28,5.35,4.27,8.24,6.11,1.01.78,2.13,1.38,3.22,2.02,5.88,3.44,12.08,6.05,18.7,7.65,4.12,1,8.07.47,11.98-1.11h0c.23.1.41-.04.61-.12,1.58-.6,3-1.53,4.42-2.46h0c1.32-.83,2.46-1.87,3.42-3.12h0c1.23-1.26,2.11-2.76,2.82-4.37h0c1.17-2.03,1.71-4.28,2.19-6.54h0c.45-1.88.63-3.8.7-5.72h0c.21-3.2.06-6.38-.39-9.54h0c-.23-2.65-.69-5.26-1.34-7.83h0c-.5-2.94-1.31-5.79-2.23-8.61-.34-1.43-.83-2.82-1.39-4.16-.32-.77.03-1.01.58-1.27.77-.37,1.53-.74,2.3-1.11h0s0,0,0,0c.09-.02.19-.02.26-.06,5.56-2.93,10.82-6.35,15.6-10.55,2.56-2.25,4.99-4.66,6.89-7.57,1.17-1.6,2.21-3.29,2.93-5.16.56-1.44,1.24-2.85,1.24-4.44Z"/><path class="st1" d="M1152.47,170.71c.23-.9.29-1.82.29-2.74.2-1.63.28-3.27.17-4.91h0c.06-1.41-.06-2.79-.3-4.17h0c-.2-1.92-.57-3.8-1.28-5.59-.66-2.14-1.65-4.09-3.02-5.82-.85-1.2-1.83-2.28-3.01-3.15-.63-.39-1.15-.92-1.77-1.33-4.42-2.94-9.35-3.2-14.43-2.79-.08-.02-.17-.05-.25-.05-2.49.1-4.98.25-7.47.51h0s0,0,0,0c-1.83.18-3.67.34-5.5.56-2.66.32-5.32.62-7.96,1.1h0c-1.39.21-2.78.39-4.17.62-2.73.46-5.47.85-8.17,1.47-3.11.45-6.19,1.08-9.27,1.74h0c-2.01.38-4.02.76-6.15,1.16.66-.79,1.22-1.46,1.78-2.14,1.5-1.65,2.93-3.36,4.28-5.14.92-1.06,1.82-2.13,2.63-3.27h0c1.06-1.2,2.04-2.47,2.98-3.78h0c.58-.62,1.09-1.3,1.57-2.01h0c.54-.71,1.17-1.36,1.63-2.13h0c.86-1.03,1.66-2.1,2.43-3.2h0c.59-.72,1.17-1.47,1.67-2.26h0c.73-.87,1.38-1.8,2.02-2.74h0c.71-1,1.42-2,2.13-2.99.7-.93,1.39-1.88,1.99-2.89.63-.8,1.2-1.65,1.71-2.53h0c1.68-2.43,3.22-4.94,4.53-7.6.43-.88.92-1.76.96-2.76.1-2.55-.04-5.09-.56-7.59-1.43-6.87-5.42-11.11-12.09-12.55-2.83-.61-5.7-.62-8.58-.34-5.65.56-11.07,2.16-16.37,4.29-.42.17-.6.1-.81-.29-1.4-2.61-2.92-5.14-4.62-7.55-2.68-3.81-5.68-7.31-9.42-10.04-3.24-2.37-6.78-3.97-10.84-4.14-4.3-.18-8.17,1.22-11.63,3.86-4.74,3.61-8.13,8.27-9.64,14.18-.86,3.36-.75,6.82-.59,10.26,0,1.01.01,2.01.16,3.01-.02,1.16.12,2.31.24,3.45h0c.07,1.22.17,2.44.36,3.65.05,1.13.19,2.24.37,3.35.11.92.22,1.83.33,2.75h0c.19,1.37.38,2.73.57,4.1.06.8.18,1.58.35,2.36.08.89.22,1.77.41,2.64h0c.2,1.59.45,3.17.78,4.74.18,1.54.46,3.06.79,4.57h0c.31,2.05.67,4.08,1.13,6.09h0c.28,1.64.54,3.29.96,4.9h0c-.12.36-.29-.02-.43.04h0c-.62-.71-1.42-1.21-2.09-1.86-1.2-1.15-2.45-2.25-3.82-3.18h0c-1.33-1.24-2.72-2.41-4.14-3.54-1.76-1.42-3.53-2.82-5.29-4.23-2.21-1.83-4.47-3.6-6.8-5.27-.47-.36-.93-.74-1.4-1.09-2.55-1.88-5.08-3.77-7.83-5.34-.88-.51-1.74-1.05-2.63-1.52-3.94-2.07-8.01-3.76-12.49-4.19-1.9-.18-3.79-.11-5.66.37h0c-.36.09-.73.17-1.08.29-1.72.59-3.35,1.35-4.71,2.64h0c-.99.73-1.83,1.6-2.53,2.62-1.13,1.36-2.03,2.86-2.66,4.53-.03.04-.05.08-.06.12-.55,1.03-.93,2.12-1.2,3.25h0c-.6,1.37-.78,2.83-.95,4.3h0c-.36,1.97-.34,3.94-.12,5.91h0c.13,2.1.6,4.12,1.21,6.11,1.1,3.62,2.65,7.03,4.52,10.27.3.51.21.74-.29.95-.49.21-.97.45-1.38.81-1.8,1.05-3.44,2.34-4.92,3.84h0c-1.57,1.41-2.93,3.02-4.17,4.74-1.14,1.44-2.16,2.98-3.06,4.6h0c-1.18,1.97-2.21,4.01-3.06,6.14-.81,1.74-1.43,3.52-1.28,5.48-.08,1.97.23,3.88.81,5.74.36,1.61.99,3.1,1.73,4.54h0c.57,1.28,1.3,2.47,2.07,3.63,1.5,2.66,3.73,4.48,6.36,5.8,3.14,1.58,6.47,2.53,9.91,3.18,3.38.65,6.79,1.01,10.23,1.19,4.22.22,8.44.11,12.66-.26,2.6-.21,5.21-.46,7.76-1.1h0c.24.08.48-.02.71-.07,2.27-.46,4.49-1.07,6.6-2.08h0c.18.09.39-.33.54.03-1.21,1.06-2.42,2.12-3.63,3.18-.98.73-1.96,1.46-2.94,2.19h0c-1.34.83-2.67,1.66-4.01,2.49h0c-1.51.76-3.02,1.52-4.53,2.28h0c-2.13.88-4.29,1.69-6.46,2.45h0c-.72.2-1.44.39-2.16.6-2.84.82-5.74,1.34-8.63,1.87h0c-2.68.35-5.38.58-8.07.81h0c-1.04.02-2.09.06-3.13.05-2.09,0-4.18-.04-6.27-.06h0c-.13-.02-.26-.07-.39-.07-3.01-.16-6.01-.49-8.99-.94-.73-.11-1.45-.39-2.34-.33.82.69,1.54,1.29,2.25,1.9h0c.09.09.18.19.28.28,2.73,2.31,5.44,4.64,8.19,6.91,4.41,3.63,8.84,7.23,13.59,10.38.6.4,1.12.44,1.78.23,2.35-.77,4.56-1.87,6.74-3.06,2.78-1.52,5.53-3.1,8.18-4.87.47-.28.97-.53,1.42-.86.53-.39,1.19-.6,1.59-1.18.85-.53,1.71-1.05,2.56-1.58,1.01-.62,2.02-1.22,2.92-2h0c.28-.02.47-.23.69-.38,1.64-1.15,3.27-2.3,4.9-3.46,1.56-.96,3.04-2.05,4.5-3.17,1.15-.74,2.26-1.54,3.33-2.4h0c.96-.52,1.71-1.35,2.64-1.92.04.06.07.12.11.18h0s0,0,0,0c-.98,1.11-1.95,2.22-2.93,3.34h0c-1.13,1.18-2.2,2.42-3.22,3.72-1.07,1.14-2.04,2.36-2.99,3.6h0c-1.07,1.25-2.08,2.55-3.04,3.9h0c-.57.69-1.09,1.41-1.56,2.16h0c-.57.72-1.07,1.49-1.53,2.29h0c-.08.11-.17.22-.24.33-2.21,3.4-3.23,7.22-3.65,11.2-.57,5.45.79,10.28,4.47,14.23,2.28,2.44,4.88,4.31,8.29,4.75,4.08.53,8.1.18,12.08-.93,5.41-1.5,10.36-4.07,15.05-7.23.82-.55.81-.54,1.38.25,2.48,3.48,5.39,6.55,8.48,9.44,3.93,3.69,8.04,7.12,13.06,9.14,4.48,1.8,8.92,1.65,13.21-.87,3.53-2.07,6.09-5.15,8.17-8.69.77-1.31,1.61-2.6,1.87-4.14.36-2.12.45-4.25.25-6.39-.04-.98-.07-1.96-.32-2.9.02-.85-.15-1.67-.33-2.49-.2-1.7-.53-3.37-.9-5.03-.26-1.6-.59-3.19-.95-4.77-.31-1.55-.62-3.09-.93-4.64h0c-.33-1.94-.68-3.88-1.15-5.79h0c-.04-1.01-.29-1.98-.49-2.95h0c-.23-1.42-.46-2.85-.7-4.27h0c-.28-1.91-.56-3.82-.84-5.73h0c-.14-1.25-.27-2.51-.41-3.76.07-.04.14-.08.2-.12h0s0,0,0,0c.59.86,1.18,1.73,1.77,2.59,1.43,2.16,3.02,4.18,4.68,6.14,1.33,1.62,2.75,3.17,4.25,4.62,1.38,1.45,2.88,2.77,4.42,4.04,1.85,1.64,3.85,3.07,5.92,4.39.73.56,1.53.99,2.32,1.45,4.23,2.47,8.69,4.35,13.45,5.5,2.96.72,5.8.34,8.61-.8h0c.16.07.3-.03.44-.08,1.14-.43,2.16-1.1,3.18-1.77h0c.95-.6,1.77-1.35,2.46-2.25h0c.88-.9,1.51-1.98,2.03-3.14h0c.84-1.46,1.23-3.07,1.57-4.7h0c.33-1.35.45-2.73.5-4.11h0c.15-2.3.04-4.59-.28-6.86h0c-.17-1.91-.5-3.78-.96-5.63h0c-.36-2.11-.95-4.16-1.6-6.19-.24-1.03-.6-2.02-1-2.99-.23-.56.02-.73.41-.92.55-.26,1.1-.53,1.65-.8h0s0,0,0,0c.06-.01.13-.01.19-.04,4-2.11,7.78-4.57,11.21-7.58,1.84-1.62,3.59-3.35,4.95-5.44.84-1.15,1.59-2.37,2.11-3.71.4-1.03.89-2.05.89-3.19Z"/><path class="st2" d="M1330.85,106.01c.22-.6.34-1.23.41-1.87.26-1.11.44-2.23.49-3.37h0c.15-.96.17-1.93.11-2.9h0c.01-1.34-.11-2.66-.46-3.95-.29-1.52-.82-2.94-1.64-4.24-.49-.89-1.08-1.71-1.83-2.4-.4-.31-.72-.72-1.12-1.05-2.82-2.36-6.2-2.91-9.73-3.02-.06-.02-.11-.05-.17-.05-1.72-.12-3.45-.21-5.18-.21h0s0,0,0,0c-1.28-.01-2.55-.04-3.83-.03-1.85.02-3.71.03-5.57.15h0c-.97.04-1.95.06-2.92.11-1.91.11-3.83.17-5.74.39-2.18.07-4.35.28-6.52.5h0c-1.41.11-2.83.22-4.32.33.51-.49.95-.92,1.39-1.34,1.16-1.02,2.27-2.09,3.34-3.21.71-.66,1.42-1.33,2.06-2.06h0c.82-.75,1.59-1.55,2.34-2.38h0c.45-.38.85-.81,1.23-1.27h0c.43-.45.91-.84,1.29-1.34h0c.67-.64,1.3-1.32,1.92-2.02h0c.46-.45.92-.92,1.33-1.43h0c.57-.55,1.09-1.14,1.6-1.73h0c.56-.63,1.13-1.27,1.69-1.9.55-.59,1.1-1.19,1.59-1.84.49-.51.95-1.04,1.37-1.61h0c1.34-1.55,2.59-3.16,3.7-4.89.36-.57.76-1.14.87-1.83.26-1.75.36-3.51.19-5.27-.46-4.84-2.89-8.07-7.37-9.56-1.9-.63-3.88-.86-5.89-.89-3.94-.04-7.79.64-11.6,1.71-.3.09-.42.03-.54-.26-.77-1.9-1.62-3.76-2.61-5.55-1.56-2.83-3.36-5.47-5.73-7.64-2.05-1.88-4.37-3.25-7.16-3.67-2.95-.45-5.72.22-8.31,1.78-3.54,2.13-6.23,5.08-7.72,9.04-.85,2.25-1.04,4.64-1.19,7.02-.07.69-.14,1.39-.12,2.08-.1.8-.09,1.6-.1,2.4h0c-.05.85-.07,1.69-.03,2.54-.05.78-.04,1.56,0,2.33,0,.64.01,1.28.02,1.92h0c.03.96.05,1.91.08,2.87-.02.55,0,1.1.06,1.65-.02.62.02,1.24.08,1.85h0c.01,1.11.07,2.22.18,3.33,0,1.07.09,2.14.2,3.21h0c.06,1.43.15,2.86.32,4.29h0c.07,1.15.12,2.31.29,3.45h0c-.11.24-.2-.04-.3,0h0c-.37-.53-.88-.94-1.3-1.44-.74-.88-1.51-1.74-2.39-2.48h0c-.83-.95-1.69-1.86-2.58-2.76-1.1-1.11-2.22-2.21-3.32-3.31-1.39-1.43-2.81-2.82-4.29-4.15-.29-.29-.58-.58-.89-.86-1.61-1.49-3.21-2.99-4.99-4.27-.57-.42-1.12-.86-1.7-1.25-2.56-1.73-5.23-3.2-8.28-3.83-1.29-.27-2.6-.37-3.93-.17h0c-.26.04-.51.06-.77.12-1.23.28-2.41.68-3.45,1.46h0c-.73.43-1.38.96-1.94,1.61-.88.85-1.61,1.82-2.17,2.92-.02.03-.04.05-.05.08-.45.67-.8,1.39-1.08,2.14h0c-.52.9-.75,1.89-.98,2.89h0c-.4,1.33-.53,2.69-.53,4.06h0c-.07,1.46.1,2.88.37,4.3.48,2.58,1.29,5.04,2.34,7.42.17.38.09.53-.27.63-.35.1-.7.24-1.01.46-1.32.59-2.55,1.35-3.68,2.27h0c-1.19.85-2.25,1.86-3.24,2.95-.9.91-1.72,1.89-2.46,2.93h0c-.96,1.27-1.83,2.6-2.58,4-.69,1.13-1.26,2.31-1.3,3.68-.2,1.35-.14,2.69.12,4.01.12,1.13.44,2.21.85,3.26h0c.3.93.71,1.8,1.15,2.66.83,1.94,2.23,3.37,3.94,4.48,2.04,1.33,4.27,2.23,6.58,2.95,2.28.7,4.6,1.21,6.96,1.6,2.89.47,5.81.72,8.74.78,1.81.05,3.62.08,5.43-.16h0c.16.07.33.02.5,0,1.6-.14,3.18-.4,4.71-.93h0c.11.08.29-.2.37.06-.91.64-1.83,1.28-2.74,1.92-.73.43-1.46.86-2.19,1.29h0c-.98.47-1.97.94-2.95,1.41h0c-1.1.41-2.19.82-3.29,1.22h0c-1.54.44-3.08.84-4.64,1.2h0c-.51.08-1.02.16-1.54.25-2.02.35-4.06.49-6.09.63h0c-1.88.04-3.75,0-5.62-.06h0c-.72-.07-1.44-.12-2.16-.2-1.44-.16-2.88-.34-4.32-.52h0c-.09-.03-.17-.06-.26-.08-2.06-.34-4.1-.8-6.12-1.33-.5-.13-.97-.38-1.59-.4.51.53.96,1.01,1.41,1.48h0c.06.07.11.15.17.21,1.7,1.8,3.39,3.61,5.12,5.38,2.76,2.84,5.54,5.65,8.58,8.18.38.32.74.39,1.21.29,1.68-.35,3.29-.94,4.88-1.59,2.03-.84,4.05-1.72,6-2.73.35-.16.71-.29,1.04-.49.4-.23.86-.33,1.18-.69.63-.3,1.26-.59,1.88-.89.74-.35,1.49-.69,2.17-1.16h0c.2,0,.34-.12.5-.21,1.21-.66,2.43-1.34,3.64-2.01,1.15-.54,2.25-1.18,3.34-1.84.85-.42,1.67-.89,2.47-1.4h0c.7-.28,1.28-.8,1.96-1.12.02.04.04.09.06.13h0s0,0,0,0c-.76.69-1.51,1.38-2.27,2.08h0c-.87.73-1.7,1.5-2.5,2.32-.82.7-1.59,1.47-2.34,2.25h0c-.83.78-1.63,1.6-2.39,2.45h0c-.44.43-.86.89-1.24,1.37h0c-.45.46-.85.95-1.23,1.46h0c-.06.07-.13.14-.19.21-1.78,2.18-2.78,4.73-3.36,7.44-.81,3.71-.24,7.14,2,10.15,1.38,1.86,3.03,3.34,5.35,3.9,2.77.67,5.57.74,8.39.28,3.84-.63,7.45-2.02,10.92-3.84.61-.32.6-.31.93.28,1.44,2.59,3.22,4.92,5.12,7.15,2.43,2.84,5,5.52,8.31,7.29,2.95,1.58,6.02,1.82,9.17.4,2.59-1.16,4.59-3.08,6.29-5.36.63-.84,1.3-1.67,1.6-2.71.41-1.43.64-2.9.66-4.38.04-.68.1-1.35,0-2.03.08-.58.02-1.16-.04-1.74,0-1.19-.11-2.36-.24-3.54-.06-1.12-.17-2.24-.29-3.36-.1-1.09-.19-2.18-.29-3.27h0c-.08-1.36-.17-2.73-.35-4.08h0c.05-.7-.05-1.38-.11-2.07h0c-.05-1-.1-2-.15-3h0c-.05-1.34-.09-2.67-.14-4.01h0c0-.87,0-1.75,0-2.62.05-.02.1-.05.15-.07h0s0,0,0,0c.34.64.68,1.28,1.02,1.92.82,1.59,1.76,3.11,2.76,4.59.8,1.22,1.65,2.39,2.58,3.51.84,1.11,1.78,2.13,2.74,3.12,1.15,1.27,2.42,2.41,3.75,3.48.46.44.98.8,1.49,1.18,2.72,2.02,5.65,3.65,8.85,4.81,1.99.72,3.97.67,6,.1h0c.11.06.21,0,.31-.02.82-.21,1.57-.59,2.32-.98h0c.7-.34,1.32-.79,1.86-1.36h0c.68-.56,1.19-1.25,1.64-2.01h0c.69-.94,1.08-2.02,1.44-3.12h0c.33-.91.52-1.85.66-2.8h0c.28-1.57.38-3.16.33-4.75h0c.03-1.33-.05-2.65-.24-3.95h0c-.09-1.48-.33-2.94-.63-4.39-.09-.73-.26-1.44-.46-2.14-.12-.4.07-.5.35-.6.4-.14.8-.28,1.2-.43h0s0,0,0,0c.04,0,.09,0,.13-.01,2.91-1.15,5.71-2.56,8.3-4.37,1.39-.97,2.73-2.03,3.83-3.37.67-.73,1.27-1.51,1.73-2.39.35-.68.77-1.34.86-2.13Z"/><g><path class="st5" d="M182.05,665.35c-55.03,0-92.71-37.68-92.71-92.16,0-23.04,5.97-43.1,18.16-59.63,18.71-25.21,45-38.49,77.25-38.49,20.87,0,38.22,5.69,53.13,17.07l4.61-15.18h11.93l1.63,58.55h-11.39c-8.13-30.09-27.11-46.9-50.96-46.9-33.07,0-55.84,30.09-55.84,81.32s21.41,79.15,55.3,79.15c27.38,0,46.08-17.89,53.67-52.05h11.39s0,68.31-76.17,68.31Z"/><path class="st5" d="M354.62,538.21c38.76,0,65.87,25.75,65.87,61.26,0,38.76-27.38,64.79-68.31,64.79-38.76,0-66.41-26.29-66.41-62.62s27.65-63.43,68.85-63.43ZM344.05,477.22h17.62l30.09,46.08h-9.76l-29.27-25.75-29.27,25.75h-9.76l30.36-46.08ZM353.54,652.88c19.52,0,26.29-17.08,26.29-53.67,0-33.34-7.86-49.61-26.02-49.61-19.25,0-27.11,16.81-27.11,52.59s5.96,50.69,26.84,50.69Z"/><path class="st5" d="M461.17,553.66h-13.55v-10.84c20.06-3.53,32.26-17.62,40.39-39.58h10.57v37.95h27.92v12.47h-27.92v78.07c0,9.21,1.35,13.82,8.94,13.82,5.69,0,10.3-3.25,14.91-10.3l9.22,7.59c-9.22,14.37-22.23,21.41-39.31,21.41-24.12,0-31.17-11.38-31.17-37.14v-73.46Z"/><path class="st5" d="M684.54,637.43c-12.47,18.16-30.36,26.83-54.21,26.83-38.22,0-64.78-25.75-64.78-62.07s26.84-64.24,67.22-64.24c33.88,0,53.94,20.06,53.94,55.57v2.17h-79.69c0,1.9-.27,3.79-.27,5.42,0,30.36,13.01,46.35,35.78,46.35,7.32,0,13.82-1.9,19.79-5.69,3.25-2.17,7.59-6.23,13.01-12.47l9.22,8.13ZM651.47,582.94v-3.26c0-19.79-7.32-30.36-20.6-30.36-14.37,0-21.96,11.11-23.85,33.62h44.46ZM645.5,483.73c4.88-5.42,10.3-8.14,14.37-8.14,5.42,0,9.76,4.61,9.76,10.3s-3.79,8.67-11.11,13.28l-39.58,24.13h-10.03l36.59-39.57Z"/></g><rect class="st3" x="641.75" y="779.73" width="1258.25" height="117.09" rx="11.67" ry="11.67"/><g><path class="st4" d="M701.06,851.73c3.83-.28,4.81-1.24,4.81-4.55v-24.18c0-3.49-.76-4.33-4.81-4.61v-2.2c2.24.17,4.26.17,5.96.17,2.3,0,5.41-.11,9.4-.11,11.53,0,17.05,2.81,17.05,10.07s-5.25,10.63-16.28,10.63c-.82,0-1.75,0-2.68-.06v10.01c0,3.66,1.09,4.84,5.19,4.84h.33v2.31c-3.28-.11-7.43-.17-12.57-.17-2.51,0-4.65,0-6.39.17v-2.31ZM715.98,834.19c5.79,0,8.14-2.31,8.14-8.04,0-4.73-2.35-7.2-6.72-7.2-2.19,0-2.9.28-2.9,1.52v13.67c.49.06.98.06,1.47.06Z"/><path class="st4" d="M740.8,854.66c-3.93,0-6.34-2.47-6.34-6.35,0-4.45,2.84-6.41,9.07-8.83l3.88-1.46c.93-.34,1.36-.85,1.36-1.92v-1.91c0-2.31-1.09-3.49-3.06-3.49-1.53,0-2.73.85-3.39,2.25-.87,1.97-1.31,4.11-3.88,4.11-1.75,0-3.06-1.29-3.06-3.15,0-3.15,3.66-5.4,10.22-5.4,6.88,0,10.38,2.42,10.38,7.31v13.27c0,1.13.27,1.58.99,1.58.38,0,.98-.28,1.8-.85l1.15,1.52c-1.36,2.02-4.04,3.32-6.34,3.32-2.73,0-4.26-1.07-5.03-3.6-2.62,2.42-5.03,3.6-7.76,3.6ZM748.5,840.09c-4.37,1.4-6.39,3.32-6.39,6.52,0,2.13,1.09,3.43,2.62,3.43,1.86,0,3.77-1.46,3.77-3.77v-6.19Z"/><path class="st4" d="M761.73,851.9c2.68-.28,3.44-.79,3.44-2.93v-11.47c0-3.66-.54-5.06-3.39-5.12v-1.97c3.88-.45,6.99-1.07,9.23-1.97h.93l.44,4.89c2.02-3.09,4.48-4.61,6.89-4.61,2.84,0,4.48,1.46,4.48,3.99,0,2.08-1.31,3.43-3.39,3.43-2.52,0-3.01-2.92-4.32-2.92-1.42,0-3.17,2.59-3.17,5.34v10.58c0,2.31.98,2.76,3.83,2.76v2.08c-2.51-.06-5.14-.11-7.76-.11-1.64,0-3.99,0-7.21.11v-2.08Z"/><path class="st4" d="M791.9,854.66c-3.93,0-6.34-2.47-6.34-6.35,0-4.45,2.84-6.41,9.07-8.83l3.88-1.46c.93-.34,1.37-.85,1.37-1.92v-1.91c0-2.31-1.09-3.49-3.06-3.49-1.53,0-2.73.85-3.39,2.25-.87,1.97-1.31,4.11-3.88,4.11-1.75,0-3.06-1.29-3.06-3.15,0-3.15,3.66-5.4,10.22-5.4,6.89,0,10.39,2.42,10.39,7.31v13.27c0,1.13.27,1.58.98,1.58.38,0,.99-.28,1.8-.85l1.15,1.52c-1.37,2.02-4.05,3.32-6.34,3.32-2.73,0-4.26-1.07-5.03-3.6-2.62,2.42-5.03,3.6-7.76,3.6ZM799.61,840.09c-4.37,1.4-6.39,3.32-6.39,6.52,0,2.13,1.09,3.43,2.62,3.43,1.86,0,3.77-1.46,3.77-3.77v-6.19Z"/><path class="st4" d="M812.13,867.65c3.33-.28,4.04-.9,4.04-3.88v-25.31c0-4.33-.27-6.02-3.72-6.02v-2.19c3.61-.28,6.78-.85,9.62-1.74h1.04v4.78c2.51-3.26,5.08-4.78,8.36-4.78,6.39,0,11.2,5.4,11.2,13.11s-4.92,13.1-11.42,13.1c-2.9,0-5.25-1.07-7.7-3.26v11.87c0,3.37.6,4.11,4.21,4.33v1.97c-3-.17-5.68-.28-7.98-.28-1.15,0-3.72.11-7.65.28v-1.97ZM828.52,851.06c4.15,0,6.01-3.09,6.01-9.56,0-5.9-2.02-8.94-5.63-8.94-3.12,0-5.36,2.59-5.36,6.81v5.73c0,3.94,1.8,5.96,4.97,5.96Z"/><path class="st4" d="M845.9,852.07c2.46,0,3.55-.9,3.55-3.32v-27.56c0-2.65-.44-3.32-3.22-3.38v-1.97c4.37-.45,7.98-1.13,10.82-1.97v19.01c2.4-2.93,5.3-4.39,8.58-4.39,5.03,0,7.54,3.15,7.54,9.45v11.81c0,1.8.55,2.08,3.06,2.31v1.91c-2.24-.11-3.99-.11-5.25-.11-2.13,0-4.97.06-8.63.17v-1.97c2.95-.22,3.06-.84,3.06-3.43v-10.69c0-3.54-.55-5.4-3.55-5.4-2.79,0-4.81,2.42-4.81,6.75v8.77c0,2.98.38,3.94,2.9,3.99v1.97c-2.02-.11-5.68-.17-10.87-.17-.82,0-1.91.06-3.17.11v-1.91Z"/><path class="st4" d="M885.42,854.66c-3.93,0-6.34-2.47-6.34-6.35,0-4.45,2.84-6.41,9.07-8.83l3.88-1.46c.93-.34,1.36-.85,1.36-1.92v-1.91c0-2.31-1.09-3.49-3.06-3.49-1.53,0-2.73.85-3.39,2.25-.87,1.97-1.31,4.11-3.88,4.11-1.75,0-3.06-1.29-3.06-3.15,0-3.15,3.66-5.4,10.22-5.4,6.88,0,10.38,2.42,10.38,7.31v13.27c0,1.13.27,1.58.99,1.58.38,0,.98-.28,1.8-.85l1.15,1.52c-1.36,2.02-4.04,3.32-6.34,3.32-2.73,0-4.26-1.07-5.03-3.6-2.62,2.42-5.03,3.6-7.76,3.6ZM893.12,840.09c-4.37,1.4-6.39,3.32-6.39,6.52,0,2.13,1.09,3.43,2.62,3.43,1.86,0,3.77-1.46,3.77-3.77v-6.19Z"/><path class="st4" d="M906.35,851.9c2.68-.28,3.44-.79,3.44-2.93v-11.47c0-3.66-.54-5.06-3.39-5.12v-1.97c3.88-.45,6.99-1.07,9.23-1.97h.93l.44,4.89c2.02-3.09,4.48-4.61,6.89-4.61,2.84,0,4.48,1.46,4.48,3.99,0,2.08-1.31,3.43-3.39,3.43-2.52,0-3.01-2.92-4.32-2.92-1.42,0-3.17,2.59-3.17,5.34v10.58c0,2.31.98,2.76,3.83,2.76v2.08c-2.51-.06-5.14-.11-7.76-.11-1.64,0-3.99,0-7.21.11v-2.08Z"/><path class="st4" d="M930.18,851.9c2.84-.34,3.23-.9,3.23-3.49v-12.32c0-2.81-.38-3.77-3.17-3.82v-1.97c2.95-.28,6.06-.9,9.34-1.91h.71l.33,5.06c2.13-3.32,5.03-5.06,8.63-5.06s5.9,1.68,6.99,4.84c2.24-3.21,5.03-4.84,8.52-4.84,5.41,0,7.27,2.98,7.27,8.83v10.97c0,2.98.16,3.6,3.22,3.71v2.13c-2.13-.11-4.21-.17-6.34-.17-2.73,0-5.25.06-7.38.17v-2.08c2.51-.06,3.11-.85,3.11-3.77v-11.36c0-2.93-.87-4.39-3.01-4.39-3.06,0-5.19,2.87-5.19,7.37v8.21c0,2.93.33,3.83,2.84,3.88v2.13c-2.24-.11-4.37-.17-6.45-.17-2.57,0-4.86.06-6.89.17v-2.13c2.51-.06,3.06-.73,3.06-3.49v-11.87c0-2.81-.82-4.11-3.06-4.11-2.95,0-5.14,2.93-5.14,7.37v8.21c0,2.76.33,3.71,2.9,3.88v2.13c-2.24-.11-4.48-.17-6.83-.17-2.57,0-4.81.06-6.72.17v-2.13Z"/><path class="st4" d="M984.45,854.66c-3.93,0-6.34-2.47-6.34-6.35,0-4.45,2.84-6.41,9.07-8.83l3.88-1.46c.93-.34,1.36-.85,1.36-1.92v-1.91c0-2.31-1.09-3.49-3.06-3.49-1.53,0-2.73.85-3.39,2.25-.87,1.97-1.31,4.11-3.88,4.11-1.75,0-3.06-1.29-3.06-3.15,0-3.15,3.66-5.4,10.22-5.4,6.88,0,10.38,2.42,10.38,7.31v13.27c0,1.13.27,1.58.99,1.58.38,0,.98-.28,1.8-.85l1.15,1.52c-1.36,2.02-4.04,3.32-6.34,3.32-2.73,0-4.26-1.07-5.03-3.6-2.62,2.42-5.03,3.6-7.76,3.6ZM992.16,840.09c-4.37,1.4-6.39,3.32-6.39,6.52,0,2.13,1.09,3.43,2.62,3.43,1.86,0,3.77-1.46,3.77-3.77v-6.19Z"/><path class="st4" d="M1028.67,849.15c-2.51,3.66-6.23,5.51-10.93,5.51-7.21,0-12.13-5.06-12.13-12.65s5.57-13.5,13.71-13.5c5.79,0,9.18,2.31,9.18,5.62,0,1.86-1.2,2.98-3,2.98-1.37,0-2.51-.84-3.22-2.47-.82-1.86-1.2-3.77-3.66-3.77-2.95,0-4.81,3.54-4.81,10.12s2.24,10.18,6.56,10.18c2.51,0,4.7-1.3,6.56-3.77l1.75,1.74Z"/><path class="st4" d="M1032.44,851.9c2.95-.17,3.44-.67,3.44-2.98v-13.27c0-2.7-.66-3.26-3.44-3.38v-1.97c4.7-.51,8.2-1.18,10.39-1.97h.82v20.59c0,2.36.55,2.81,3.44,2.98v2.13c-3.5-.11-5.74-.17-6.83-.17-2.79,0-5.41.06-7.82.17v-2.13ZM1039.44,814.05c2.35,0,4.15,1.91,4.15,4.27s-1.86,4.27-4.15,4.27-4.15-1.91-4.15-4.27,1.8-4.27,4.15-4.27Z"/><path class="st4" d="M1074.3,849.09c-2.51,3.77-6.12,5.57-10.93,5.57-7.7,0-13.06-5.34-13.06-12.88s5.41-13.33,13.55-13.33c6.83,0,10.88,4.16,10.88,11.53v.45h-16.07c0,.39-.06.79-.06,1.12,0,6.3,2.62,9.62,7.21,9.62,1.48,0,2.79-.4,3.99-1.18.66-.45,1.53-1.3,2.62-2.59l1.86,1.69ZM1067.64,837.79v-.67c0-4.11-1.47-6.3-4.15-6.3-2.9,0-4.43,2.3-4.81,6.97h8.96Z"/><path class="st4" d="M1093.55,838.07h13.12v6.69h-13.12v-6.69Z"/><path class="st4" d="M1160.16,840.71v13.16h-2.24l-1.2-3.2c-3.72,2.86-7.54,4.22-11.91,4.22-11.09,0-18.69-7.82-18.69-19.12,0-4.78,1.2-8.94,3.66-12.38,3.77-5.23,9.07-7.99,15.58-7.99,4.21,0,7.71,1.18,10.71,3.54l.93-3.15h2.4l.33,12.15h-2.29c-1.64-6.25-5.46-9.73-10.27-9.73-6.67,0-11.26,6.24-11.26,16.87s4.32,16.42,11.15,16.42c5.52,0,9.29-3.71,10.82-10.8h2.29Z"/><path class="st4" d="M1188.7,849.09c-2.51,3.77-6.12,5.57-10.93,5.57-7.7,0-13.06-5.34-13.06-12.88s5.41-13.33,13.55-13.33c6.83,0,10.88,4.16,10.88,11.53v.45h-16.07c0,.39-.06.79-.06,1.12,0,6.3,2.62,9.62,7.21,9.62,1.48,0,2.79-.4,3.99-1.18.66-.45,1.53-1.3,2.62-2.59l1.86,1.69ZM1182.03,837.79v-.67c0-4.11-1.47-6.3-4.15-6.3-2.9,0-4.43,2.3-4.81,6.97h8.96Z"/><path class="st4" d="M1191.93,852.02c3.11-.28,3.39-.79,3.39-3.2v-12.54c0-2.98-.66-3.72-3.39-3.72v-2.08c2.95-.22,6.01-.84,9.29-1.97h.93l.33,4.95c2.51-3.32,5.46-4.95,8.91-4.95,5.08,0,7.7,2.98,7.7,8.94v11.36c0,2.47.22,2.98,3.23,3.2v2.02c-2.52-.11-4.86-.17-7.11-.17-1.91,0-4.21.06-6.83.17v-2.02c2.57,0,3.11-.67,3.11-3.2v-11.36c0-3.21-1.09-4.84-3.28-4.84-3.11,0-5.3,2.7-5.3,7.14v8.78c0,2.59.6,3.43,3.23,3.49v2.02c-3.23-.11-5.74-.17-7.6-.17-2.08,0-4.26.06-6.61.17v-2.02Z"/><path class="st4" d="M1227.4,831.71h-2.73v-2.25c4.04-.73,6.5-3.66,8.14-8.21h2.13v7.87h5.63v2.59h-5.63v16.2c0,1.91.27,2.87,1.8,2.87,1.15,0,2.08-.67,3.01-2.14l1.86,1.58c-1.86,2.98-4.48,4.44-7.92,4.44-4.86,0-6.28-2.36-6.28-7.71v-15.24Z"/><path class="st4" d="M1242.92,851.9c2.68-.28,3.44-.79,3.44-2.93v-11.47c0-3.66-.55-5.06-3.39-5.12v-1.97c3.88-.45,6.99-1.07,9.24-1.97h.93l.44,4.89c2.02-3.09,4.48-4.61,6.88-4.61,2.84,0,4.48,1.46,4.48,3.99,0,2.08-1.31,3.43-3.39,3.43-2.51,0-3-2.92-4.32-2.92-1.42,0-3.17,2.59-3.17,5.34v10.58c0,2.31.98,2.76,3.83,2.76v2.08c-2.51-.06-5.14-.11-7.76-.11-1.64,0-3.99,0-7.21.11v-2.08Z"/><path class="st4" d="M1290.96,849.09c-2.51,3.77-6.12,5.57-10.93,5.57-7.7,0-13.06-5.34-13.06-12.88s5.41-13.33,13.55-13.33c6.83,0,10.88,4.16,10.88,11.53v.45h-16.07c0,.39-.06.79-.06,1.12,0,6.3,2.62,9.62,7.21,9.62,1.48,0,2.79-.4,3.99-1.18.66-.45,1.53-1.3,2.62-2.59l1.86,1.69ZM1284.29,837.79v-.67c0-4.11-1.47-6.3-4.15-6.3-2.9,0-4.43,2.3-4.81,6.97h8.96Z"/><path class="st4" d="M1329,850.05c-1.91,3.09-4.53,4.55-8.19,4.55-6.89,0-11.26-5.06-11.26-13.05s5.08-13.1,11.58-13.1c3.23,0,5.9,1.18,7.76,3.32v-11.36c0-2.42-.82-2.81-4.21-2.98v-2.02c5.68-.22,9.56-.9,11.69-1.52v34.2c0,1.74,1.09,2.31,3.66,2.36v1.97c-3.5.39-6.94,1.12-10.44,2.19l-.6-4.55ZM1323.53,832.11c-3.6,0-5.68,3.2-5.68,9.45s1.75,9,5.19,9,5.68-2.3,5.68-6.69v-6.02c0-3.71-1.91-5.73-5.19-5.73Z"/><path class="st4" d="M1366.77,849.09c-2.51,3.77-6.12,5.57-10.93,5.57-7.71,0-13.06-5.34-13.06-12.88s5.41-13.33,13.55-13.33c6.83,0,10.87,4.16,10.87,11.53v.45h-16.07c0,.39-.05.79-.05,1.12,0,6.3,2.62,9.62,7.21,9.62,1.47,0,2.79-.4,3.99-1.18.66-.45,1.53-1.3,2.62-2.59l1.86,1.69ZM1360.1,837.79v-.67c0-4.11-1.48-6.3-4.15-6.3-2.9,0-4.43,2.3-4.81,6.97h8.96Z"/><path class="st4" d="M1386.28,850.16c0-1.13,0-2.53-.11-4.22h1.97c1.15,3.93,4.37,6.3,7.59,6.3,2.4,0,4.1-1.46,4.1-3.2,0-2.25-1.75-2.93-4.7-4.05-5.68-2.13-8.58-3.6-8.58-8.44s3.12-8.1,8.14-8.1c2.62,0,4.97.84,6.45,2.13l1.04-1.86h2.07c-.05,1.29-.05,2.47-.05,3.66s0,2.36.05,3.77h-2.07c-1.31-3.37-3.99-5.34-6.89-5.34-2.19,0-3.6,1.24-3.6,2.86,0,2.47,2.19,2.76,6.01,4.11,5.3,1.86,7.82,4.45,7.82,8.66,0,4.84-3.55,8.21-9.18,8.21-3.28,0-5.85-.95-7.27-2.47l-.82,2.14h-2.08c.11-1.69.11-3.09.11-4.16Z"/><path class="st4" d="M1422.73,828.51c7.82,0,13.28,5.34,13.28,12.71,0,8.04-5.52,13.44-13.77,13.44-7.82,0-13.39-5.46-13.39-12.99s5.57-13.16,13.88-13.16ZM1422.51,852.3c3.93,0,5.3-3.54,5.3-11.13,0-6.92-1.59-10.29-5.25-10.29-3.88,0-5.46,3.48-5.46,10.91s1.2,10.52,5.41,10.52Z"/><path class="st4" d="M1439.08,851.9c2.95-.17,3.44-.67,3.44-2.98v-13.27c0-2.7-.66-3.26-3.44-3.38v-1.97c4.7-.51,8.19-1.18,10.38-1.97h.82v20.59c0,2.36.55,2.81,3.44,2.98v2.13c-3.5-.11-5.74-.17-6.83-.17-2.79,0-5.41.06-7.81.17v-2.13ZM1446.07,814.05c2.35,0,4.15,1.91,4.15,4.27s-1.86,4.27-4.15,4.27-4.15-1.91-4.15-4.27,1.8-4.27,4.15-4.27Z"/><path class="st4" d="M1456.73,852.02c3.11-.28,3.39-.79,3.39-3.2v-12.54c0-2.98-.66-3.72-3.39-3.72v-2.08c2.95-.22,6.01-.84,9.29-1.97h.93l.33,4.95c2.51-3.32,5.46-4.95,8.91-4.95,5.08,0,7.7,2.98,7.7,8.94v11.36c0,2.47.22,2.98,3.23,3.2v2.02c-2.52-.11-4.86-.17-7.11-.17-1.91,0-4.21.06-6.83.17v-2.02c2.57,0,3.11-.67,3.11-3.2v-11.36c0-3.21-1.09-4.84-3.28-4.84-3.11,0-5.3,2.7-5.3,7.14v8.78c0,2.59.6,3.43,3.23,3.49v2.02c-3.23-.11-5.74-.17-7.6-.17-2.08,0-4.26.06-6.61.17v-2.02Z"/><path class="st4" d="M1490.89,850.16c0-1.13,0-2.53-.11-4.22h1.97c1.15,3.93,4.37,6.3,7.6,6.3,2.4,0,4.1-1.46,4.1-3.2,0-2.25-1.75-2.93-4.7-4.05-5.68-2.13-8.58-3.6-8.58-8.44s3.11-8.1,8.14-8.1c2.62,0,4.97.84,6.45,2.13l1.04-1.86h2.08c-.06,1.29-.06,2.47-.06,3.66s0,2.36.06,3.77h-2.08c-1.31-3.37-3.99-5.34-6.88-5.34-2.19,0-3.61,1.24-3.61,2.86,0,2.47,2.19,2.76,6.01,4.11,5.3,1.86,7.81,4.45,7.81,8.66,0,4.84-3.55,8.21-9.18,8.21-3.28,0-5.85-.95-7.27-2.47l-.82,2.14h-2.08c.11-1.69.11-3.09.11-4.16Z"/><path class="st4" d="M1529.59,838.07h13.12v6.69h-13.12v-6.69Z"/><path class="st4" d="M1562.44,851.73c3.83-.28,4.81-1.24,4.81-4.55v-24.18c0-3.49-.76-4.33-4.81-4.61v-2.2c2.24.17,4.26.17,5.96.17,2.3,0,5.41-.11,9.4-.11,11.53,0,17.05,2.81,17.05,10.07s-5.25,10.63-16.28,10.63c-.82,0-1.75,0-2.68-.06v10.01c0,3.66,1.09,4.84,5.19,4.84h.33v2.31c-3.28-.11-7.43-.17-12.57-.17-2.51,0-4.65,0-6.39.17v-2.31ZM1577.36,834.19c5.79,0,8.14-2.31,8.14-8.04,0-4.73-2.35-7.2-6.72-7.2-2.19,0-2.9.28-2.9,1.52v13.67c.49.06.98.06,1.47.06Z"/><path class="st4" d="M1602.17,854.66c-3.93,0-6.34-2.47-6.34-6.35,0-4.45,2.84-6.41,9.07-8.83l3.88-1.46c.93-.34,1.36-.85,1.36-1.92v-1.91c0-2.31-1.09-3.49-3.06-3.49-1.53,0-2.73.85-3.39,2.25-.87,1.97-1.31,4.11-3.88,4.11-1.75,0-3.06-1.29-3.06-3.15,0-3.15,3.66-5.4,10.22-5.4,6.88,0,10.38,2.42,10.38,7.31v13.27c0,1.13.27,1.58.99,1.58.38,0,.98-.28,1.8-.85l1.15,1.52c-1.36,2.02-4.04,3.32-6.34,3.32-2.73,0-4.26-1.07-5.03-3.6-2.62,2.42-5.03,3.6-7.76,3.6ZM1609.88,840.09c-4.37,1.4-6.39,3.32-6.39,6.52,0,2.13,1.09,3.43,2.62,3.43,1.86,0,3.77-1.46,3.77-3.77v-6.19Z"/><path class="st4" d="M1623.1,851.9c2.68-.28,3.44-.79,3.44-2.93v-11.47c0-3.66-.54-5.06-3.39-5.12v-1.97c3.88-.45,6.99-1.07,9.23-1.97h.93l.44,4.89c2.02-3.09,4.48-4.61,6.89-4.61,2.84,0,4.48,1.46,4.48,3.99,0,2.08-1.31,3.43-3.39,3.43-2.52,0-3.01-2.92-4.32-2.92-1.42,0-3.17,2.59-3.17,5.34v10.58c0,2.31.98,2.76,3.83,2.76v2.08c-2.51-.06-5.14-.11-7.76-.11-1.64,0-3.99,0-7.21.11v-2.08Z"/><path class="st4" d="M1646.39,852.13c3.28-.11,4.15-1.07,4.15-4.05v-16.37h-3.99v-2.59h3.99v-1.8c0-3.77.11-6.75,1.53-9.11,1.7-2.81,4.81-4.33,9.18-4.33,5.03,0,7.71,1.63,7.71,4.5,0,1.91-1.2,3.15-2.84,3.15-1.75,0-2.51-.79-3.33-2.64-.71-1.63-.98-2.59-2.29-2.59-1.7,0-2.46,1.86-2.46,5.52v7.31h6.72v2.59h-6.61v16.37c0,3.21,1.36,3.99,5.36,4.05v1.91c-3.44-.17-6.5-.17-9.07-.17-2.08,0-4.76.06-8.03.17v-1.91Z"/><path class="st4" d="M1668.9,835.59c0-3.21-.16-4.39-3.22-4.56v-1.91c4.59-.11,8.14-.06,10.71-.17v17.1c0,2.98.98,4.39,3.11,4.39,3.72,0,5.36-2.98,5.36-8.94v-6.24c0-3.2-.44-4.16-3.33-4.22v-1.91c3.39-.11,6.99-.06,10.88-.17v19.12c0,1.86.66,2.36,2.68,2.36h.66v1.97c-3.44.39-6.56,1.07-9.4,1.91h-.82l-.44-4.67c-2.24,3.2-5.41,4.95-8.8,4.95-5.08,0-7.38-2.59-7.38-7.93v-11.08Z"/><path class="st4" d="M1698.8,851.9c2.84-.34,3.23-.9,3.23-3.49v-12.32c0-2.81-.38-3.77-3.17-3.82v-1.97c2.95-.28,6.06-.9,9.34-1.91h.71l.33,5.06c2.13-3.32,5.03-5.06,8.63-5.06s5.9,1.68,6.99,4.84c2.24-3.21,5.03-4.84,8.52-4.84,5.41,0,7.27,2.98,7.27,8.83v10.97c0,2.98.16,3.6,3.22,3.71v2.13c-2.13-.11-4.21-.17-6.34-.17-2.73,0-5.25.06-7.38.17v-2.08c2.51-.06,3.11-.85,3.11-3.77v-11.36c0-2.93-.87-4.39-3.01-4.39-3.06,0-5.19,2.87-5.19,7.37v8.21c0,2.93.33,3.83,2.84,3.88v2.13c-2.24-.11-4.37-.17-6.45-.17-2.57,0-4.86.06-6.89.17v-2.13c2.51-.06,3.06-.73,3.06-3.49v-11.87c0-2.81-.82-4.11-3.06-4.11-2.95,0-5.14,2.93-5.14,7.37v8.21c0,2.76.33,3.71,2.9,3.88v2.13c-2.24-.11-4.48-.17-6.83-.17-2.57,0-4.81.06-6.72.17v-2.13Z"/><path class="st4" d="M1770.94,849.09c-2.51,3.77-6.12,5.57-10.93,5.57-7.7,0-13.06-5.34-13.06-12.88s5.41-13.33,13.55-13.33c6.83,0,10.88,4.16,10.88,11.53v.45h-16.07c0,.39-.06.79-.06,1.12,0,6.3,2.62,9.62,7.21,9.62,1.48,0,2.79-.4,3.99-1.18.66-.45,1.53-1.3,2.62-2.59l1.86,1.69ZM1764.28,837.79v-.67c0-4.11-1.47-6.3-4.15-6.3-2.9,0-4.43,2.3-4.81,6.97h8.96Z"/><path class="st4" d="M1774.34,851.9c2.68-.28,3.44-.79,3.44-2.93v-11.47c0-3.66-.54-5.06-3.39-5.12v-1.97c3.88-.45,6.99-1.07,9.23-1.97h.93l.44,4.89c2.02-3.09,4.48-4.61,6.89-4.61,2.84,0,4.48,1.46,4.48,3.99,0,2.08-1.31,3.43-3.39,3.43-2.52,0-3.01-2.92-4.32-2.92-1.42,0-3.17,2.59-3.17,5.34v10.58c0,2.31.98,2.76,3.83,2.76v2.08c-2.51-.06-5.14-.11-7.76-.11-1.64,0-3.99,0-7.21.11v-2.08Z"/><path class="st4" d="M1798.38,851.9c2.95-.17,3.44-.67,3.44-2.98v-13.27c0-2.7-.66-3.26-3.44-3.38v-1.97c4.7-.51,8.2-1.18,10.39-1.97h.82v20.59c0,2.36.55,2.81,3.44,2.98v2.13c-3.5-.11-5.74-.17-6.83-.17-2.79,0-5.41.06-7.82.17v-2.13ZM1805.38,814.05c2.35,0,4.15,1.91,4.15,4.27s-1.86,4.27-4.15,4.27-4.15-1.91-4.15-4.27,1.8-4.27,4.15-4.27Z"/><path class="st4" d="M1840.25,849.09c-2.51,3.77-6.12,5.57-10.93,5.57-7.71,0-13.06-5.34-13.06-12.88s5.41-13.33,13.55-13.33c6.83,0,10.87,4.16,10.87,11.53v.45h-16.07c0,.39-.05.79-.05,1.12,0,6.3,2.62,9.62,7.21,9.62,1.47,0,2.79-.4,3.99-1.18.66-.45,1.53-1.3,2.62-2.59l1.86,1.69ZM1833.58,837.79v-.67c0-4.11-1.48-6.3-4.15-6.3-2.9,0-4.43,2.3-4.81,6.97h8.96Z"/></g></svg>