<svg xmlns:xlink="http://www.w3.org/1999/xlink" width="283" height="47" viewBox="0 0 283 47" fill="none" xmlns="http://www.w3.org/2000/svg">
<path fill-rule="evenodd" clip-rule="evenodd" d="M108.411 23.6034H97.0974V21.7473C97.0974 20.4541 98.1507 19.4024 99.4416 19.4024H106.067C107.36 19.4024 108.411 20.4541 108.411 21.7473V23.6034ZM106.067 16.8433H99.4416C96.7392 16.8433 94.5391 19.0441 94.5391 21.7473V28.0167C94.5391 30.7219 96.7392 32.9227 99.4416 32.9227H109.422C110.127 32.9227 110.701 32.3482 110.701 31.6412C110.701 30.9362 110.127 30.3616 109.422 30.3616H99.4416C98.1507 30.3616 97.0974 29.3099 97.0974 28.0167V26.1626H110.97V21.7473C110.97 19.0441 108.77 16.8433 106.067 16.8433Z" fill="#E1251B"/>
<path fill-rule="evenodd" clip-rule="evenodd" d="M266.872 23.6034H255.558V21.7473C255.558 20.4541 256.612 19.4024 257.902 19.4024H264.528C265.821 19.4024 266.872 20.4541 266.872 21.7473V23.6034ZM264.528 16.8433H257.902C255.2 16.8433 253 19.0441 253 21.7473V28.0167C253 30.7219 255.2 32.9227 257.902 32.9227H267.883C268.589 32.9227 269.162 32.3482 269.162 31.6412C269.162 30.9362 268.589 30.3616 267.883 30.3616H257.902C256.612 30.3616 255.558 29.3099 255.558 28.0167V26.1626H269.431V21.7473C269.431 19.0441 267.232 16.8433 264.528 16.8433Z" fill="#E1251B"/>
<path fill-rule="evenodd" clip-rule="evenodd" d="M224.193 28.0169C224.193 29.3102 223.141 30.3619 221.848 30.3619H215.225C213.932 30.3619 212.879 29.3102 212.879 28.0169V26.1628H224.193V28.0169ZM221.848 16.8435H216.455C215.748 16.8435 215.176 17.4161 215.176 18.1211C215.176 18.8301 215.748 19.4027 216.455 19.4027H221.848C223.141 19.4027 224.193 20.4544 224.193 21.7476V23.6037H210.32V28.0169C210.32 30.7222 212.52 32.923 215.225 32.923H221.848C224.553 32.923 226.751 30.7222 226.751 28.0169V21.7476C226.751 19.0443 224.553 16.8435 221.848 16.8435Z" fill="#E1251B"/>
<path fill-rule="evenodd" clip-rule="evenodd" d="M175.052 28.0169C175.052 29.3102 174.001 30.3619 172.708 30.3619H166.084C164.791 30.3619 163.738 29.3102 163.738 28.0169V21.7476C163.738 20.4544 164.791 19.4027 166.084 19.4027H172.708C174.001 19.4027 175.052 20.4544 175.052 21.7476V28.0169ZM172.708 16.8435H166.084C163.38 16.8435 161.18 19.0443 161.18 21.7476V28.0169C161.18 30.7222 163.38 32.923 166.084 32.923H172.708C175.412 32.923 177.61 30.7222 177.61 28.0169V21.7476C177.61 19.0443 175.412 16.8435 172.708 16.8435Z" fill="#E1251B"/>
<path fill-rule="evenodd" clip-rule="evenodd" d="M243.729 16.8439H237.106C234.401 16.8439 232.203 19.0447 232.203 21.748V31.6418C232.203 32.3488 232.776 32.9214 233.48 32.9214C234.187 32.9214 234.76 32.3488 234.76 31.6418V21.748C234.76 20.4547 235.813 19.403 237.106 19.403H243.729C245.022 19.403 246.073 20.4547 246.073 21.748V31.6418C246.073 32.3488 246.648 32.9214 247.355 32.9214C248.059 32.9214 248.634 32.3488 248.634 31.6418V21.748C248.634 19.0447 246.434 16.8439 243.729 16.8439Z" fill="#E1251B"/>
<path fill-rule="evenodd" clip-rule="evenodd" d="M196.794 28.0169C196.794 29.3102 195.743 30.3619 194.45 30.3619H187.826C186.532 30.3619 185.48 29.3102 185.48 28.0169V24.8832V21.7476C185.48 20.4544 186.532 19.4027 187.826 19.4027H194.45C195.743 19.4027 196.794 20.4544 196.794 21.7476V28.0169ZM194.45 16.8435H187.826C185.122 16.8435 182.922 19.0443 182.922 21.7476V24.8832V28.0169V38.9898C182.922 39.6968 183.494 40.2694 184.201 40.2694C184.908 40.2694 185.48 39.6968 185.48 38.9898V32.3231C186.177 32.7048 186.977 32.923 187.826 32.923H194.45C197.152 32.923 199.352 30.7222 199.352 28.0169V21.7476C199.352 19.0443 197.152 16.8435 194.45 16.8435Z" fill="#E1251B"/>
<path fill-rule="evenodd" clip-rule="evenodd" d="M156.535 16.8439H149.66C146.958 16.8439 144.758 19.0447 144.758 21.748V31.6418C144.758 32.3488 145.33 32.9214 146.037 32.9214C146.742 32.9214 147.316 32.3488 147.316 31.6418V21.748C147.316 20.4547 148.368 19.403 149.66 19.403H156.535C157.242 19.403 157.814 18.8304 157.814 18.1235C157.814 17.4165 157.242 16.8439 156.535 16.8439Z" fill="#E1251B"/>
<path fill-rule="evenodd" clip-rule="evenodd" d="M118.834 19.403H128.812C129.521 19.403 130.092 18.8304 130.092 18.1215C130.092 17.4165 129.521 16.8439 128.812 16.8439H118.834C116.13 16.8439 113.93 19.0447 113.93 21.748V28.0173C113.93 30.7225 116.13 32.9214 118.834 32.9214H128.812C129.521 32.9214 130.092 32.3488 130.092 31.6418C130.092 30.9348 129.521 30.3622 128.812 30.3622H118.834C117.541 30.3622 116.49 29.3105 116.49 28.0173V21.748C116.49 20.4547 117.541 19.403 118.834 19.403Z" fill="#E1251B"/>
<path fill-rule="evenodd" clip-rule="evenodd" d="M82.1605 24.2493C82.8672 24.2493 83.4396 23.6767 83.4396 22.9697C83.4396 22.2628 82.8672 21.6902 82.1605 21.6902H64.3943V17.9215C64.3943 16.6283 65.4476 15.5766 66.7404 15.5766H75.054C75.7608 15.5766 76.3332 15.004 76.3332 14.297C76.3332 13.5901 75.7608 13.0175 75.054 13.0175H66.7404C64.036 13.0175 61.8359 15.2183 61.8359 17.9215V28.016C61.8359 30.7212 64.036 32.924 66.7404 32.924H82.1605C82.8672 32.924 83.4396 32.3494 83.4396 31.6425C83.4396 30.9374 82.8672 30.3629 82.1605 30.3629H66.7404C65.4476 30.3629 64.3943 29.3092 64.3943 28.016V24.2493H82.1605Z" fill="#E1251B"/>
<path fill-rule="evenodd" clip-rule="evenodd" d="M88.3495 12.7375C87.6427 12.7375 87.0703 13.3101 87.0703 14.0171V31.8456C87.0703 32.5506 87.6427 33.1232 88.3495 33.1232C89.0562 33.1232 89.6286 32.5506 89.6286 31.8456V14.0171C89.6286 13.3101 89.0562 12.7375 88.3495 12.7375Z" fill="#E1251B"/>
<path fill-rule="evenodd" clip-rule="evenodd" d="M205.607 12.7375C204.901 12.7375 204.328 13.3101 204.328 14.0171V31.8456C204.328 32.5506 204.901 33.1232 205.607 33.1232C206.314 33.1232 206.886 32.5506 206.886 31.8456V14.0171C206.886 13.3101 206.314 12.7375 205.607 12.7375Z" fill="#E1251B"/>
<path fill-rule="evenodd" clip-rule="evenodd" d="M141.528 16.8438H136.347V14.0159C136.347 13.3109 135.775 12.7383 135.068 12.7383C134.361 12.7383 133.789 13.3109 133.789 14.0159V31.8443C133.789 32.5494 134.361 33.1239 135.068 33.1239C135.775 33.1239 136.347 32.5494 136.347 31.8443V19.403H141.528C142.235 19.403 142.807 18.8304 142.807 18.1234C142.807 17.4164 142.235 16.8438 141.528 16.8438Z" fill="#E1251B"/>
<path fill-rule="evenodd" clip-rule="evenodd" d="M281.278 16.8438H276.097V14.0159C276.097 13.3109 275.525 12.7383 274.818 12.7383C274.113 12.7383 273.539 13.3109 273.539 14.0159V31.8443C273.539 32.5494 274.113 33.1239 274.818 33.1239C275.525 33.1239 276.097 32.5494 276.097 31.8443V19.403H281.278C281.985 19.403 282.557 18.8304 282.557 18.1234C282.557 17.4164 281.985 16.8438 281.278 16.8438Z" fill="#E1251B"/>
<path fill-rule="evenodd" clip-rule="evenodd" d="M46.9848 23.5C46.9848 36.4789 36.4671 47 23.4924 47C10.5177 47 0 36.4789 0 23.5C0 10.5211 10.5177 0 23.4924 0C36.4671 0 46.9848 10.5211 46.9848 23.5Z" fill="#E1251B"/>
<path fill-rule="evenodd" clip-rule="evenodd" d="M35.1938 31.7362H16.2421C15.1215 31.7362 14.2098 30.8242 14.2098 29.7033V25.9216H35.1938C36.5282 25.9216 37.6141 24.8354 37.6141 23.5005C37.6141 22.1637 36.5282 21.0775 35.1938 21.0775H14.2098V17.2968C14.2098 16.1758 15.1215 15.2629 16.2421 15.2629H26.4609C27.7952 15.2629 28.8812 14.1766 28.8812 12.8418C28.8812 11.506 27.7952 10.4197 26.4609 10.4197H16.2421C12.4517 10.4197 9.36719 13.5052 9.36719 17.2968V29.7033C9.36719 33.4949 12.4517 36.5804 16.2421 36.5804H35.1938C36.5282 36.5804 37.6141 35.4941 37.6141 34.1583C37.6141 32.8225 36.5282 31.7362 35.1938 31.7362Z" fill="white"/>
</svg>