<svg xmlns:xlink="http://www.w3.org/1999/xlink" xmlns:dc="http://purl.org/dc/elements/1.1/" xmlns:cc="http://creativecommons.org/ns#" xmlns:rdf="http://www.w3.org/1999/02/22-rdf-syntax-ns#" xmlns:svg="http://www.w3.org/2000/svg" xmlns="http://www.w3.org/2000/svg" viewBox="0 0 240 122.2424" height="122.2424" width="240" xml:space="preserve" id="svg2" version="1.1"><metadata id="metadata8"/><defs id="defs6"><clipPath id="clipPath18"><path id="path16" d="M 0,91.682 H 180 V 0 H 0 Z"/></clipPath></defs><g transform="matrix(1.3333333,0,0,-1.3333333,0,122.2424)" id="g10"><g id="g12"><g clip-path="url(#clipPath18)" id="g14"><g transform="translate(96.8903,7.3276)" id="g20"><path id="path22" style="fill:#3469bc;fill-opacity:1;fill-rule:nonzero;stroke:none" d="M 0,0 C 0,0.489 -0.079,0.936 -0.235,1.338 -0.392,1.74 -0.606,2.096 -0.877,2.404 -1.148,2.711 -1.464,2.972 -1.826,3.185 -2.188,3.399 -2.574,3.56 -2.983,3.671 -3.406,3.781 -3.8,3.947 -4.168,4.168 -4.536,4.389 -4.861,4.665 -5.144,4.997 -5.427,5.329 -5.65,5.711 -5.813,6.145 -5.976,6.58 -6.057,7.057 -6.057,7.578 c 0,0.616 0.081,1.185 0.244,1.705 0.163,0.521 0.382,0.971 0.66,1.35 0.277,0.379 0.603,0.675 0.976,0.888 0.374,0.213 0.771,0.32 1.194,0.32 0.614,0 1.184,-0.186 1.708,-0.556 0.524,-0.372 0.955,-0.865 1.293,-1.481 L -0.579,9.283 c -0.277,0.49 -0.621,0.88 -1.03,1.173 -0.41,0.292 -0.868,0.438 -1.374,0.438 -0.326,0 -0.63,-0.079 -0.914,-0.237 C -4.18,10.499 -4.43,10.274 -4.647,9.982 -4.864,9.69 -5.033,9.339 -5.153,8.928 -5.274,8.517 -5.334,8.068 -5.334,7.578 c 0,-0.394 0.069,-0.754 0.208,-1.077 0.138,-0.324 0.322,-0.612 0.551,-0.865 0.229,-0.252 0.495,-0.462 0.796,-0.627 0.301,-0.166 0.615,-0.288 0.94,-0.367 0.507,-0.111 0.977,-0.3 1.411,-0.569 0.433,-0.268 0.81,-0.604 1.13,-1.006 C 0.021,2.664 0.271,2.206 0.452,1.693 0.633,1.18 0.723,0.616 0.723,0 c 0,-0.711 -0.096,-1.37 -0.289,-1.977 -0.193,-0.608 -0.458,-1.134 -0.795,-1.575 -0.338,-0.443 -0.733,-0.79 -1.185,-1.042 -0.452,-0.253 -0.931,-0.379 -1.437,-0.379 -0.507,0 -0.986,0.126 -1.438,0.379 -0.452,0.252 -0.847,0.599 -1.184,1.042 -0.338,0.441 -0.603,0.959 -0.796,1.551 -0.193,0.592 -0.289,1.219 -0.289,1.883 h 0.723 c 0,-0.537 0.079,-1.043 0.235,-1.516 0.157,-0.474 0.371,-0.888 0.642,-1.243 0.271,-0.356 0.588,-0.636 0.95,-0.841 0.361,-0.205 0.747,-0.308 1.157,-0.308 0.409,0 0.795,0.099 1.157,0.296 0.362,0.197 0.678,0.474 0.949,0.829 0.271,0.355 0.485,0.782 0.642,1.279 C -0.079,-1.125 0,-0.584 0,0"/></g><g transform="translate(96.8903,7.3276)" id="g24"><path id="path26" style="fill:none;stroke:#3469bc;stroke-width:1;stroke-linecap:butt;stroke-linejoin:miter;stroke-miterlimit:10;stroke-dasharray:none;stroke-opacity:1" d="M 0,0 C 0,0.489 -0.079,0.936 -0.235,1.338 -0.392,1.74 -0.606,2.096 -0.877,2.404 -1.148,2.711 -1.464,2.972 -1.826,3.185 -2.188,3.399 -2.574,3.56 -2.983,3.671 -3.406,3.781 -3.8,3.947 -4.168,4.168 -4.536,4.389 -4.861,4.665 -5.144,4.997 -5.427,5.329 -5.65,5.711 -5.813,6.145 -5.976,6.58 -6.057,7.057 -6.057,7.578 c 0,0.616 0.081,1.185 0.244,1.705 0.163,0.521 0.382,0.971 0.66,1.35 0.277,0.379 0.603,0.675 0.976,0.888 0.374,0.213 0.771,0.32 1.194,0.32 0.614,0 1.184,-0.186 1.708,-0.556 0.524,-0.372 0.955,-0.865 1.293,-1.481 L -0.579,9.283 c -0.277,0.49 -0.621,0.88 -1.03,1.173 -0.41,0.292 -0.868,0.438 -1.374,0.438 -0.326,0 -0.63,-0.079 -0.914,-0.237 C -4.18,10.499 -4.43,10.274 -4.647,9.982 -4.864,9.69 -5.033,9.339 -5.153,8.928 -5.274,8.517 -5.334,8.068 -5.334,7.578 c 0,-0.394 0.069,-0.754 0.208,-1.077 0.138,-0.324 0.322,-0.612 0.551,-0.865 0.229,-0.252 0.495,-0.462 0.796,-0.627 0.301,-0.166 0.615,-0.288 0.94,-0.367 0.507,-0.111 0.977,-0.3 1.411,-0.569 0.433,-0.268 0.81,-0.604 1.13,-1.006 C 0.021,2.664 0.271,2.206 0.452,1.693 0.633,1.18 0.723,0.616 0.723,0 c 0,-0.711 -0.096,-1.37 -0.289,-1.977 -0.193,-0.608 -0.458,-1.134 -0.795,-1.575 -0.338,-0.443 -0.733,-0.79 -1.185,-1.042 -0.452,-0.253 -0.931,-0.379 -1.437,-0.379 -0.507,0 -0.986,0.126 -1.438,0.379 -0.452,0.252 -0.847,0.599 -1.184,1.042 -0.338,0.441 -0.603,0.959 -0.796,1.551 -0.193,0.592 -0.289,1.219 -0.289,1.883 h 0.723 c 0,-0.537 0.079,-1.043 0.235,-1.516 0.157,-0.474 0.371,-0.888 0.642,-1.243 0.271,-0.356 0.588,-0.636 0.95,-0.841 0.361,-0.205 0.747,-0.308 1.157,-0.308 0.409,0 0.795,0.099 1.157,0.296 0.362,0.197 0.678,0.474 0.949,0.829 0.271,0.355 0.485,0.782 0.642,1.279 C -0.079,-1.125 0,-0.584 0,0 Z"/></g><g transform="translate(103.7608,6.025)" id="g28"><path id="path30" style="fill:#3469bc;fill-opacity:1;fill-rule:nonzero;stroke:none" d="m 0,0 c 0,-0.852 0.178,-1.52 0.533,-2.001 0.356,-0.482 0.841,-0.722 1.456,-0.722 0.579,0 1.055,0.24 1.429,0.722 0.373,0.481 0.56,1.149 0.56,2.001 v 4.737 c 0,0.868 -0.187,1.539 -0.56,2.012 C 3.044,7.223 2.568,7.46 1.989,7.46 1.374,7.46 0.889,7.223 0.533,6.749 0.178,6.276 0,5.605 0,4.737 Z m 1.989,-3.671 c -0.386,0 -0.744,0.092 -1.076,0.273 -0.331,0.181 -0.618,0.434 -0.859,0.757 -0.241,0.324 -0.431,0.711 -0.569,1.161 -0.139,0.45 -0.208,0.943 -0.208,1.48 v 4.737 c 0,0.552 0.069,1.053 0.208,1.503 0.138,0.45 0.328,0.837 0.569,1.161 0.241,0.323 0.528,0.572 0.859,0.746 0.332,0.173 0.69,0.26 1.076,0.26 0.374,0 0.723,-0.087 1.049,-0.26 C 3.363,7.973 3.649,7.724 3.897,7.401 4.144,7.077 4.34,6.69 4.484,6.24 4.629,5.79 4.701,5.289 4.701,4.737 V 0 C 4.701,-0.537 4.629,-1.03 4.484,-1.48 4.34,-1.93 4.144,-2.317 3.897,-2.641 3.649,-2.964 3.363,-3.217 3.038,-3.398 2.712,-3.579 2.363,-3.671 1.989,-3.671"/></g><g transform="translate(103.7608,6.025)" id="g32"><path id="path34" style="fill:none;stroke:#3469bc;stroke-width:1;stroke-linecap:butt;stroke-linejoin:miter;stroke-miterlimit:10;stroke-dasharray:none;stroke-opacity:1" d="m 0,0 c 0,-0.852 0.178,-1.52 0.533,-2.001 0.356,-0.482 0.841,-0.722 1.456,-0.722 0.579,0 1.055,0.24 1.429,0.722 0.373,0.481 0.56,1.149 0.56,2.001 v 4.737 c 0,0.868 -0.187,1.539 -0.56,2.012 C 3.044,7.223 2.568,7.46 1.989,7.46 1.374,7.46 0.889,7.223 0.533,6.749 0.178,6.276 0,5.605 0,4.737 Z m 1.989,-3.671 c -0.386,0 -0.744,0.092 -1.076,0.273 -0.331,0.181 -0.618,0.434 -0.859,0.757 -0.241,0.324 -0.431,0.711 -0.569,1.161 -0.139,0.45 -0.208,0.943 -0.208,1.48 v 4.737 c 0,0.552 0.069,1.053 0.208,1.503 0.138,0.45 0.328,0.837 0.569,1.161 0.241,0.323 0.528,0.572 0.859,0.746 0.332,0.173 0.69,0.26 1.076,0.26 0.374,0 0.723,-0.087 1.049,-0.26 C 3.363,7.973 3.649,7.724 3.897,7.401 4.144,7.077 4.34,6.69 4.484,6.24 4.629,5.79 4.701,5.289 4.701,4.737 V 0 C 4.701,-0.537 4.629,-1.03 4.484,-1.48 4.34,-1.93 4.144,-2.317 3.897,-2.641 3.649,-2.964 3.363,-3.217 3.038,-3.398 2.712,-3.579 2.363,-3.671 1.989,-3.671 Z"/></g><g transform="translate(114.2479,19.0505)" id="g36"><path id="path38" style="fill:#3469bc;fill-opacity:1;fill-rule:nonzero;stroke:none" d="m 0,0 h 0.723 v -13.144 c 0,-0.442 0.003,-0.813 0.01,-1.113 0.005,-0.3 0.029,-0.56 0.072,-0.781 0.042,-0.221 0.111,-0.395 0.208,-0.521 0.096,-0.127 0.241,-0.19 0.434,-0.19 v -0.947 c -0.338,0 -0.603,0.091 -0.796,0.272 -0.193,0.182 -0.338,0.426 -0.434,0.734 C 0.12,-15.382 0.06,-15.019 0.036,-14.6 0.012,-14.182 0,-13.696 0,-13.144 Z"/></g><g transform="translate(114.2479,19.0505)" id="g40"><path id="path42" style="fill:none;stroke:#3469bc;stroke-width:1;stroke-linecap:butt;stroke-linejoin:miter;stroke-miterlimit:10;stroke-dasharray:none;stroke-opacity:1" d="m 0,0 h 0.723 v -13.144 c 0,-0.442 0.003,-0.813 0.01,-1.113 0.005,-0.3 0.029,-0.56 0.072,-0.781 0.042,-0.221 0.111,-0.395 0.208,-0.521 0.096,-0.127 0.241,-0.19 0.434,-0.19 v -0.947 c -0.338,0 -0.603,0.091 -0.796,0.272 -0.193,0.182 -0.338,0.426 -0.434,0.734 C 0.12,-15.382 0.06,-15.019 0.036,-14.6 0.012,-14.182 0,-13.696 0,-13.144 Z"/></g><g transform="translate(126.7242,14.3139)" id="g44"><path id="path46" style="fill:#3469bc;fill-opacity:1;fill-rule:nonzero;stroke:none" d="m 0,0 v -8.431 c 0,-0.379 0.003,-0.718 0.009,-1.018 0.006,-0.3 0.033,-0.557 0.081,-0.77 0.048,-0.213 0.121,-0.379 0.217,-0.497 0.097,-0.119 0.235,-0.178 0.416,-0.178 v -0.947 c -0.386,0 -0.675,0.114 -0.868,0.343 -0.193,0.229 -0.331,0.541 -0.416,0.936 -0.253,-0.426 -0.566,-0.766 -0.94,-1.019 -0.373,-0.252 -0.777,-0.378 -1.211,-0.378 -0.386,0 -0.745,0.091 -1.076,0.272 -0.332,0.181 -0.618,0.434 -0.859,0.758 -0.241,0.323 -0.431,0.71 -0.57,1.16 -0.138,0.45 -0.207,0.943 -0.207,1.48 V 0 h 0.723 v -8.289 c 0,-0.852 0.177,-1.519 0.533,-2.001 0.356,-0.482 0.841,-0.722 1.456,-0.722 0.542,0 1.003,0.228 1.383,0.686 0.38,0.458 0.581,1.098 0.606,1.919 l 0,8.407 z"/></g><g transform="translate(126.7242,14.3139)" id="g48"><path id="path50" style="fill:none;stroke:#3469bc;stroke-width:1;stroke-linecap:butt;stroke-linejoin:miter;stroke-miterlimit:10;stroke-dasharray:none;stroke-opacity:1" d="m 0,0 v -8.431 c 0,-0.379 0.003,-0.718 0.009,-1.018 0.006,-0.3 0.033,-0.557 0.081,-0.77 0.048,-0.213 0.121,-0.379 0.217,-0.497 0.097,-0.119 0.235,-0.178 0.416,-0.178 v -0.947 c -0.386,0 -0.675,0.114 -0.868,0.343 -0.193,0.229 -0.331,0.541 -0.416,0.936 -0.253,-0.426 -0.566,-0.766 -0.94,-1.019 -0.373,-0.252 -0.777,-0.378 -1.211,-0.378 -0.386,0 -0.745,0.091 -1.076,0.272 -0.332,0.181 -0.618,0.434 -0.859,0.758 -0.241,0.323 -0.431,0.71 -0.57,1.16 -0.138,0.45 -0.207,0.943 -0.207,1.48 V 0 h 0.723 v -8.289 c 0,-0.852 0.177,-1.519 0.533,-2.001 0.356,-0.482 0.841,-0.722 1.456,-0.722 0.542,0 1.003,0.228 1.383,0.686 0.38,0.458 0.581,1.098 0.606,1.919 l 0,8.407 z"/></g><g transform="translate(133.8933,4.7344)" id="g52"><path id="path54" style="fill:#3469bc;fill-opacity:1;fill-rule:nonzero;stroke:none" d="m 0,0 c 0.139,-0.355 0.329,-0.651 0.57,-0.888 0.241,-0.237 0.512,-0.403 0.813,-0.497 0.242,-0.079 0.494,-0.087 0.76,-0.024 V -2.356 C 1.805,-2.404 1.467,-2.372 1.13,-2.262 0.744,-2.12 0.398,-1.891 0.091,-1.575 c -0.308,0.316 -0.555,0.711 -0.742,1.184 -0.187,0.474 -0.28,1.034 -0.28,1.682 v 7.341 h -0.723 v 0.947 h 0.723 v 4.737 h 0.723 V 9.579 H 1.42 V 8.632 H -0.208 V 1.291 C -0.208,0.785 -0.138,0.355 0,0"/></g><g transform="translate(133.8933,4.7344)" id="g56"><path id="path58" style="fill:none;stroke:#3469bc;stroke-width:1;stroke-linecap:butt;stroke-linejoin:miter;stroke-miterlimit:10;stroke-dasharray:none;stroke-opacity:1" d="m 0,0 c 0.139,-0.355 0.329,-0.651 0.57,-0.888 0.241,-0.237 0.512,-0.403 0.813,-0.497 0.242,-0.079 0.494,-0.087 0.76,-0.024 V -2.356 C 1.805,-2.404 1.467,-2.372 1.13,-2.262 0.744,-2.12 0.398,-1.891 0.091,-1.575 c -0.308,0.316 -0.555,0.711 -0.742,1.184 -0.187,0.474 -0.28,1.034 -0.28,1.682 v 7.341 h -0.723 v 0.947 h 0.723 v 4.737 h 0.723 V 9.579 H 1.42 V 8.632 H -0.208 V 1.291 C -0.208,0.785 -0.138,0.355 0,0 Z"/></g><path id="path60" style="fill:#3469bc;fill-opacity:1;fill-rule:nonzero;stroke:none" d="m 141.46,14.314 h 0.723 V 2.473 h -0.723 z m -0.09,2.723 c 0,0.174 0.042,0.316 0.126,0.427 0.084,0.11 0.193,0.165 0.326,0.165 0.132,0 0.241,-0.055 0.325,-0.165 0.084,-0.111 0.127,-0.253 0.127,-0.427 0,-0.174 -0.043,-0.316 -0.127,-0.426 -0.084,-0.11 -0.193,-0.166 -0.325,-0.166 -0.133,0 -0.242,0.056 -0.326,0.166 -0.084,0.11 -0.126,0.252 -0.126,0.426"/><path id="path62" style="fill:none;stroke:#3469bc;stroke-width:1;stroke-linecap:butt;stroke-linejoin:miter;stroke-miterlimit:10;stroke-dasharray:none;stroke-opacity:1" d="m 141.46,14.314 h 0.723 V 2.473 h -0.723 z m -0.09,2.723 c 0,0.174 0.042,0.316 0.126,0.427 0.084,0.11 0.193,0.165 0.326,0.165 0.132,0 0.241,-0.055 0.325,-0.165 0.084,-0.111 0.127,-0.253 0.127,-0.427 0,-0.174 -0.043,-0.316 -0.127,-0.426 -0.084,-0.11 -0.193,-0.166 -0.325,-0.166 -0.133,0 -0.242,0.056 -0.326,0.166 -0.084,0.11 -0.126,0.252 -0.126,0.426 z"/><g transform="translate(148.7834,6.025)" id="g64"><path id="path66" style="fill:#3469bc;fill-opacity:1;fill-rule:nonzero;stroke:none" d="m 0,0 c 0,-0.852 0.178,-1.52 0.533,-2.001 0.356,-0.482 0.841,-0.722 1.456,-0.722 0.579,0 1.055,0.24 1.429,0.722 0.373,0.481 0.56,1.149 0.56,2.001 v 4.737 c 0,0.868 -0.187,1.539 -0.56,2.012 C 3.044,7.223 2.568,7.46 1.989,7.46 1.374,7.46 0.889,7.223 0.533,6.749 0.178,6.276 0,5.605 0,4.737 Z m 1.989,-3.671 c -0.386,0 -0.744,0.092 -1.076,0.273 -0.331,0.181 -0.618,0.434 -0.859,0.757 -0.241,0.324 -0.431,0.711 -0.569,1.161 -0.139,0.45 -0.208,0.943 -0.208,1.48 v 4.737 c 0,0.552 0.069,1.053 0.208,1.503 0.138,0.45 0.328,0.837 0.569,1.161 0.241,0.323 0.528,0.572 0.859,0.746 0.332,0.173 0.69,0.26 1.076,0.26 0.374,0 0.723,-0.087 1.049,-0.26 C 3.363,7.973 3.649,7.724 3.897,7.401 4.143,7.077 4.34,6.69 4.484,6.24 4.629,5.79 4.701,5.289 4.701,4.737 V 0 C 4.701,-0.537 4.629,-1.03 4.484,-1.48 4.34,-1.93 4.143,-2.317 3.897,-2.641 3.649,-2.964 3.363,-3.217 3.038,-3.398 2.712,-3.579 2.363,-3.671 1.989,-3.671"/></g><g transform="translate(148.7834,6.025)" id="g68"><path id="path70" style="fill:none;stroke:#3469bc;stroke-width:1;stroke-linecap:butt;stroke-linejoin:miter;stroke-miterlimit:10;stroke-dasharray:none;stroke-opacity:1" d="m 0,0 c 0,-0.852 0.178,-1.52 0.533,-2.001 0.356,-0.482 0.841,-0.722 1.456,-0.722 0.579,0 1.055,0.24 1.429,0.722 0.373,0.481 0.56,1.149 0.56,2.001 v 4.737 c 0,0.868 -0.187,1.539 -0.56,2.012 C 3.044,7.223 2.568,7.46 1.989,7.46 1.374,7.46 0.889,7.223 0.533,6.749 0.178,6.276 0,5.605 0,4.737 Z m 1.989,-3.671 c -0.386,0 -0.744,0.092 -1.076,0.273 -0.331,0.181 -0.618,0.434 -0.859,0.757 -0.241,0.324 -0.431,0.711 -0.569,1.161 -0.139,0.45 -0.208,0.943 -0.208,1.48 v 4.737 c 0,0.552 0.069,1.053 0.208,1.503 0.138,0.45 0.328,0.837 0.569,1.161 0.241,0.323 0.528,0.572 0.859,0.746 0.332,0.173 0.69,0.26 1.076,0.26 0.374,0 0.723,-0.087 1.049,-0.26 C 3.363,7.973 3.649,7.724 3.897,7.401 4.143,7.077 4.34,6.69 4.484,6.24 4.629,5.79 4.701,5.289 4.701,4.737 V 0 C 4.701,-0.537 4.629,-1.03 4.484,-1.48 4.34,-1.93 4.143,-2.317 3.897,-2.641 3.649,-2.964 3.363,-3.217 3.038,-3.398 2.712,-3.579 2.363,-3.671 1.989,-3.671 Z"/></g><g transform="translate(159.2705,14.3139)" id="g72"><path id="path74" style="fill:#3469bc;fill-opacity:1;fill-rule:nonzero;stroke:none" d="m 0,0 h 0.723 v -1.255 c 0.241,0.347 0.537,0.663 0.886,0.947 0.35,0.285 0.718,0.426 1.103,0.426 0.386,0 0.744,-0.091 1.076,-0.272 0.332,-0.182 0.618,-0.434 0.859,-0.758 0.241,-0.323 0.431,-0.71 0.57,-1.16 0.138,-0.45 0.207,-0.944 0.207,-1.48 v -8.289 H 4.701 v 8.289 c 0,0.852 -0.178,1.519 -0.533,2.001 C 3.812,-1.07 3.327,-0.829 2.712,-0.829 2.134,-0.829 1.657,-1.07 1.284,-1.551 0.91,-2.033 0.723,-2.7 0.723,-3.552 v -8.289 H 0 Z"/></g><g transform="translate(159.2705,14.3139)" id="g76"><path id="path78" style="fill:none;stroke:#3469bc;stroke-width:1;stroke-linecap:butt;stroke-linejoin:miter;stroke-miterlimit:10;stroke-dasharray:none;stroke-opacity:1" d="m 0,0 h 0.723 v -1.255 c 0.241,0.347 0.537,0.663 0.886,0.947 0.35,0.285 0.718,0.426 1.103,0.426 0.386,0 0.744,-0.091 1.076,-0.272 0.332,-0.182 0.618,-0.434 0.859,-0.758 0.241,-0.323 0.431,-0.71 0.57,-1.16 0.138,-0.45 0.207,-0.944 0.207,-1.48 v -8.289 H 4.701 v 8.289 c 0,0.852 -0.178,1.519 -0.533,2.001 C 3.812,-1.07 3.327,-0.829 2.712,-0.829 2.134,-0.829 1.657,-1.07 1.284,-1.551 0.91,-2.033 0.723,-2.7 0.723,-3.552 v -8.289 H 0 Z"/></g><g transform="translate(173.0304,9.3169)" id="g80"><path id="path82" style="fill:#3469bc;fill-opacity:1;fill-rule:nonzero;stroke:none" d="m 0,0 c 0.362,-0.063 0.702,-0.189 1.022,-0.379 0.319,-0.189 0.596,-0.426 0.831,-0.71 0.236,-0.284 0.419,-0.612 0.552,-0.983 0.132,-0.371 0.199,-0.778 0.199,-1.22 0,-0.537 -0.072,-1.03 -0.217,-1.48 C 2.242,-5.222 2.046,-5.609 1.799,-5.932 1.552,-6.256 1.266,-6.509 0.94,-6.69 0.615,-6.871 0.265,-6.962 -0.108,-6.962 c -0.386,0 -0.745,0.094 -1.076,0.283 -0.332,0.19 -0.618,0.447 -0.859,0.77 -0.241,0.324 -0.431,0.699 -0.57,1.125 -0.138,0.426 -0.207,0.884 -0.207,1.374 h 0.723 c 0,-0.758 0.177,-1.382 0.533,-1.871 0.355,-0.49 0.841,-0.734 1.456,-0.734 0.578,0 1.054,0.24 1.428,0.722 0.374,0.481 0.561,1.149 0.561,2.001 0,0.679 -0.187,1.212 -0.561,1.599 -0.374,0.386 -0.85,0.643 -1.428,0.769 -0.326,0.063 -0.63,0.178 -0.913,0.344 -0.284,0.166 -0.531,0.371 -0.742,0.615 -0.211,0.245 -0.38,0.525 -0.506,0.841 -0.127,0.316 -0.19,0.663 -0.19,1.042 0,0.474 0.06,0.908 0.181,1.303 0.12,0.394 0.289,0.73 0.506,1.006 0.217,0.276 0.467,0.494 0.751,0.652 0.283,0.157 0.587,0.236 0.913,0.236 0.506,0 0.964,-0.162 1.374,-0.485 C 1.676,4.306 1.995,3.884 2.224,3.363 L 1.645,2.866 C 1.489,3.26 1.26,3.576 0.958,3.813 0.657,4.049 0.301,4.168 -0.108,4.168 c -0.459,0 -0.844,-0.205 -1.158,-0.616 -0.313,-0.41 -0.47,-0.955 -0.47,-1.634 0,-0.252 0.048,-0.485 0.145,-0.698 C -1.495,1.006 -1.365,0.817 -1.202,0.651 -1.04,0.486 -0.853,0.347 -0.642,0.237 -0.431,0.126 -0.217,0.047 0,0"/></g><g transform="translate(173.0304,9.3169)" id="g84"><path id="path86" style="fill:none;stroke:#3469bc;stroke-width:1;stroke-linecap:butt;stroke-linejoin:miter;stroke-miterlimit:10;stroke-dasharray:none;stroke-opacity:1" d="m 0,0 c 0.362,-0.063 0.702,-0.189 1.022,-0.379 0.319,-0.189 0.596,-0.426 0.831,-0.71 0.236,-0.284 0.419,-0.612 0.552,-0.983 0.132,-0.371 0.199,-0.778 0.199,-1.22 0,-0.537 -0.072,-1.03 -0.217,-1.48 C 2.242,-5.222 2.046,-5.609 1.799,-5.932 1.552,-6.256 1.266,-6.509 0.94,-6.69 0.615,-6.871 0.265,-6.962 -0.108,-6.962 c -0.386,0 -0.745,0.094 -1.076,0.283 -0.332,0.19 -0.618,0.447 -0.859,0.77 -0.241,0.324 -0.431,0.699 -0.57,1.125 -0.138,0.426 -0.207,0.884 -0.207,1.374 h 0.723 c 0,-0.758 0.177,-1.382 0.533,-1.871 0.355,-0.49 0.841,-0.734 1.456,-0.734 0.578,0 1.054,0.24 1.428,0.722 0.374,0.481 0.561,1.149 0.561,2.001 0,0.679 -0.187,1.212 -0.561,1.599 -0.374,0.386 -0.85,0.643 -1.428,0.769 -0.326,0.063 -0.63,0.178 -0.913,0.344 -0.284,0.166 -0.531,0.371 -0.742,0.615 -0.211,0.245 -0.38,0.525 -0.506,0.841 -0.127,0.316 -0.19,0.663 -0.19,1.042 0,0.474 0.06,0.908 0.181,1.303 0.12,0.394 0.289,0.73 0.506,1.006 0.217,0.276 0.467,0.494 0.751,0.652 0.283,0.157 0.587,0.236 0.913,0.236 0.506,0 0.964,-0.162 1.374,-0.485 C 1.676,4.306 1.995,3.884 2.224,3.363 L 1.645,2.866 C 1.489,3.26 1.26,3.576 0.958,3.813 0.657,4.049 0.301,4.168 -0.108,4.168 c -0.459,0 -0.844,-0.205 -1.158,-0.616 -0.313,-0.41 -0.47,-0.955 -0.47,-1.634 0,-0.252 0.048,-0.485 0.145,-0.698 C -1.495,1.006 -1.365,0.817 -1.202,0.651 -1.04,0.486 -0.853,0.347 -0.642,0.237 -0.431,0.126 -0.217,0.047 0,0 Z"/></g><g transform="translate(3.6062,88.3027)" id="g88"><path id="path90" style="fill:#413a37;fill-opacity:1;fill-rule:nonzero;stroke:none" d="m 0,0 h 3.716 v -61.317 h 27.872 v -3.716 H 0 Z"/></g><g transform="translate(3.6062,88.3027)" id="g92"><path id="path94" style="fill:none;stroke:#413a37;stroke-width:2;stroke-linecap:butt;stroke-linejoin:miter;stroke-miterlimit:10;stroke-dasharray:none;stroke-opacity:1" d="m 0,0 h 3.716 v -61.317 h 27.872 v -3.716 H 0 Z"/></g><g transform="translate(44.9045,80.406)" id="g96"><path id="path98" style="fill:#3469bc;fill-opacity:1;fill-rule:nonzero;stroke:none" d="M 0,0 C 0,1.197 0.38,2.177 1.143,2.94 1.904,3.701 2.884,4.083 4.083,4.083 5.281,4.083 6.261,3.701 7.024,2.94 7.784,2.177 8.167,1.197 8.167,0 8.167,-1.2 7.784,-2.18 7.024,-2.94 6.261,-3.704 5.281,-4.084 4.083,-4.084 c -1.199,0 -2.179,0.38 -2.94,1.144 C 0.38,-2.18 0,-1.2 0,0"/></g><g transform="translate(66.4989,69.7219)" id="g100"><path id="path102" style="fill:#413a37;fill-opacity:1;fill-rule:nonzero;stroke:none" d="m 0,0 h 3.716 v -4.924 c 1.238,1.362 2.755,2.601 4.552,3.716 1.796,1.115 3.685,1.672 5.668,1.672 1.981,0 3.823,-0.357 5.528,-1.068 1.702,-0.713 3.173,-1.704 4.413,-2.973 1.238,-1.27 2.213,-2.787 2.926,-4.552 0.711,-1.766 1.069,-3.702 1.069,-5.807 v -32.517 h -3.717 v 32.517 c 0,3.344 -0.914,5.96 -2.74,7.851 -1.828,1.888 -4.321,2.833 -7.479,2.833 -2.973,0 -5.421,-0.945 -7.34,-2.833 -1.92,-1.891 -2.88,-4.507 -2.88,-7.851 V -46.453 H 0 Z"/></g><g transform="translate(66.4989,69.7219)" id="g104"><path id="path106" style="fill:none;stroke:#413a37;stroke-width:2;stroke-linecap:butt;stroke-linejoin:miter;stroke-miterlimit:10;stroke-dasharray:none;stroke-opacity:1" d="m 0,0 h 3.716 v -4.924 c 1.238,1.362 2.755,2.601 4.552,3.716 1.796,1.115 3.685,1.672 5.668,1.672 1.981,0 3.823,-0.357 5.528,-1.068 1.702,-0.713 3.173,-1.704 4.413,-2.973 1.238,-1.27 2.213,-2.787 2.926,-4.552 0.711,-1.766 1.069,-3.702 1.069,-5.807 v -32.517 h -3.717 v 32.517 c 0,3.344 -0.914,5.96 -2.74,7.851 -1.828,1.888 -4.321,2.833 -7.479,2.833 -2.973,0 -5.421,-0.945 -7.34,-2.833 -1.92,-1.891 -2.88,-4.507 -2.88,-7.851 V -46.453 H 0 Z"/></g><g transform="translate(136.0358,69.7219)" id="g108"><path id="path110" style="fill:#413a37;fill-opacity:1;fill-rule:nonzero;stroke:none" d="m 0,0 -16.165,-20.253 18.859,-26.2 h -4.552 l -17.652,24.527 v 3.716 L -4.924,0 Z m -23.226,-46.453 h -3.716 V 18.58 h 3.716 z"/></g><g transform="translate(136.0358,69.7219)" id="g112"><path id="path114" style="fill:none;stroke:#413a37;stroke-width:2;stroke-linecap:butt;stroke-linejoin:miter;stroke-miterlimit:10;stroke-dasharray:none;stroke-opacity:1" d="m 0,0 -16.165,-20.253 18.859,-26.2 h -4.552 l -17.652,24.527 v 3.716 L -4.924,0 Z m -23.226,-46.453 h -3.716 V 18.58 h 3.716 z"/></g><g transform="translate(162.3716,50.1187)" id="g116"><path id="path118" style="fill:#413a37;fill-opacity:1;fill-rule:nonzero;stroke:none" d="m 0,0 c 1.858,-0.248 3.607,-0.743 5.249,-1.486 1.641,-0.743 3.066,-1.673 4.274,-2.788 1.208,-1.114 2.151,-2.4 2.833,-3.855 0.681,-1.456 1.022,-3.051 1.022,-4.785 0,-2.106 -0.371,-4.041 -1.115,-5.806 -0.743,-1.765 -1.75,-3.284 -3.019,-4.553 -1.27,-1.27 -2.74,-2.261 -4.413,-2.972 -1.672,-0.712 -3.469,-1.069 -5.388,-1.069 -1.983,0 -3.826,0.372 -5.528,1.115 -1.704,0.743 -3.175,1.749 -4.413,3.019 -1.24,1.269 -2.216,2.741 -2.927,4.413 -0.712,1.673 -1.068,3.468 -1.068,5.389 h 3.716 c 0,-2.973 0.913,-5.421 2.741,-7.34 1.826,-1.92 4.32,-2.88 7.479,-2.88 2.973,0 5.419,0.944 7.339,2.834 1.919,1.889 2.88,4.506 2.88,7.85 0,2.663 -0.961,4.753 -2.88,6.271 -1.92,1.517 -4.366,2.523 -7.339,3.02 -1.672,0.246 -3.238,0.697 -4.692,1.347 -1.456,0.65 -2.726,1.455 -3.809,2.416 -1.085,0.959 -1.951,2.058 -2.601,3.298 -0.651,1.238 -0.976,2.601 -0.976,4.087 0,1.859 0.309,3.561 0.929,5.11 0.618,1.548 1.486,2.864 2.601,3.949 1.115,1.083 2.4,1.935 3.856,2.554 1.454,0.619 3.02,0.93 4.692,0.93 2.601,0 4.954,-0.636 7.061,-1.905 2.104,-1.27 3.746,-2.926 4.923,-4.97 L 8.454,11.242 c -0.805,1.547 -1.983,2.787 -3.53,3.716 -1.549,0.929 -3.376,1.393 -5.481,1.393 -2.355,0 -4.337,-0.805 -5.946,-2.415 -1.612,-1.611 -2.416,-3.748 -2.416,-6.411 0,-0.991 0.247,-1.904 0.744,-2.74 0.495,-0.837 1.161,-1.58 1.997,-2.23 0.836,-0.65 1.795,-1.193 2.88,-1.626 C -2.215,0.495 -1.115,0.186 0,0"/></g><g transform="translate(162.3716,50.1187)" id="g120"><path id="path122" style="fill:none;stroke:#413a37;stroke-width:2;stroke-linecap:butt;stroke-linejoin:miter;stroke-miterlimit:10;stroke-dasharray:none;stroke-opacity:1" d="m 0,0 c 1.858,-0.248 3.607,-0.743 5.249,-1.486 1.641,-0.743 3.066,-1.673 4.274,-2.788 1.208,-1.114 2.151,-2.4 2.833,-3.855 0.681,-1.456 1.022,-3.051 1.022,-4.785 0,-2.106 -0.371,-4.041 -1.115,-5.806 -0.743,-1.765 -1.75,-3.284 -3.019,-4.553 -1.27,-1.27 -2.74,-2.261 -4.413,-2.972 -1.672,-0.712 -3.469,-1.069 -5.388,-1.069 -1.983,0 -3.826,0.372 -5.528,1.115 -1.704,0.743 -3.175,1.749 -4.413,3.019 -1.24,1.269 -2.216,2.741 -2.927,4.413 -0.712,1.673 -1.068,3.468 -1.068,5.389 h 3.716 c 0,-2.973 0.913,-5.421 2.741,-7.34 1.826,-1.92 4.32,-2.88 7.479,-2.88 2.973,0 5.419,0.944 7.339,2.834 1.919,1.889 2.88,4.506 2.88,7.85 0,2.663 -0.961,4.753 -2.88,6.271 -1.92,1.517 -4.366,2.523 -7.339,3.02 -1.672,0.246 -3.238,0.697 -4.692,1.347 -1.456,0.65 -2.726,1.455 -3.809,2.416 -1.085,0.959 -1.951,2.058 -2.601,3.298 -0.651,1.238 -0.976,2.601 -0.976,4.087 0,1.859 0.309,3.561 0.929,5.11 0.618,1.548 1.486,2.864 2.601,3.949 1.115,1.083 2.4,1.935 3.856,2.554 1.454,0.619 3.02,0.93 4.692,0.93 2.601,0 4.954,-0.636 7.061,-1.905 2.104,-1.27 3.746,-2.926 4.923,-4.97 L 8.454,11.242 c -0.805,1.547 -1.983,2.787 -3.53,3.716 -1.549,0.929 -3.376,1.393 -5.481,1.393 -2.355,0 -4.337,-0.805 -5.946,-2.415 -1.612,-1.611 -2.416,-3.748 -2.416,-6.411 0,-0.991 0.247,-1.904 0.744,-2.74 0.495,-0.837 1.161,-1.58 1.997,-2.23 0.836,-0.65 1.795,-1.193 2.88,-1.626 C -2.215,0.495 -1.115,0.186 0,0 Z"/></g><g transform="translate(52.7436,41.044)" id="g124"><path id="path126" style="fill:#3469bc;fill-opacity:1;fill-rule:nonzero;stroke:none" d="m 0,0 v -10.256 c 0,-2.043 -1.663,-3.707 -3.707,-3.707 -2.045,0 -3.708,1.663 -3.709,3.708 l 0.001,15.032 c 0,2.045 1.662,3.708 3.707,3.707 0.639,0 1.232,-0.177 1.759,-0.463 0.041,0.153 0.095,0.299 0.095,0.463 v 3.445 c -0.595,0.155 -1.21,0.263 -1.854,0.262 -4.094,10e-4 -7.415,-3.32 -7.415,-7.415 v -15.031 c 10e-4,-4.096 3.32,-7.415 7.416,-7.415 4.094,0 7.414,3.32 7.415,7.415 V 2.981 C 2.75,1.693 1.485,0.653 0,0 M 3.708,23.572 3.706,8.484 C 3.708,4.389 0.387,1.069 -3.708,1.07 -4.352,1.069 -4.966,1.179 -5.562,1.331 l 0.001,3.446 c -0.001,0.164 0.053,0.313 0.093,0.465 0.527,-0.288 1.12,-0.465 1.76,-0.465 2.045,-0.001 3.707,1.664 3.707,3.707 v 15.087 c 0,2.046 -1.663,3.709 -3.708,3.708 -2.043,0.001 -3.706,-1.662 -3.707,-3.707 l 0.002,-10.311 c -1.487,-0.653 -2.751,-1.694 -3.709,-2.98 v 13.291 c 0,4.095 3.32,7.415 7.416,7.415 4.094,0 7.414,-3.32 7.415,-7.415"/></g></g></g></g></svg>